<svg xmlns="http://www.w3.org/2000/svg" viewBox="0 0 253.69 85.43"><defs><style>.cls-1{fill:#fff;}</style></defs><g id="Layer_2" data-name="Layer 2"><g id="Layer_1-2" data-name="Layer 1"><path class="cls-1" d="M127,85.42H13.32c-5.3,0-9.39-2.11-11.78-6.82A14.17,14.17,0,0,1,.08,72.48C0,52.65,0,32.82,0,13,0,5.37,5.49,0,13.13,0H240.54c7.77,0,13.14,5.41,13.14,13.23q0,29.46,0,58.9c0,7.91-5.36,13.28-13.25,13.28Zm-.11-3H240.61c6,0,10.1-4.07,10.1-10.07q0-29.67,0-59.34a9.59,9.59,0,0,0-9.12-10c-.3,0-.59,0-.88,0H13A9.58,9.58,0,0,0,3,12.07c0,.31,0,.62,0,.92Q3,42.74,3,72.48a9.61,9.61,0,0,0,2,6.23,9.93,9.93,0,0,0,8.34,3.74q56.73,0,113.47,0Z"/><g id="Layer_2-2" data-name="Layer 2"><g id="Layer_1-2-2" data-name="Layer 1-2"><path class="cls-1" d="M92.37,27.76c0-3.13-2.32-5.22-5.69-5.22H82.12V33h4.62C90.05,33,92.37,30.83,92.37,27.76Zm-8.31,3.57V24.18H86.6a3.5,3.5,0,0,1,3.81,3.14,3.23,3.23,0,0,1,0,.44A3.49,3.49,0,0,1,87,31.35a3.31,3.31,0,0,1-.44,0Z"/><path class="cls-1" d="M97.82,24.92a4,4,0,0,0-4.22,3.79,2.62,2.62,0,0,0,0,.28,4.24,4.24,0,1,0,8.48,0,4,4,0,0,0-3.94-4.08Zm0,6.55a2.31,2.31,0,0,1-2.36-2.27V29a2.37,2.37,0,1,1,4.72-.34,1.93,1.93,0,0,1,0,.34A2.3,2.3,0,0,1,98,31.47.81.81,0,0,1,97.82,31.47Z"/><polygon class="cls-1" points="107.17 32.96 109.26 27.49 111.31 32.96 113.09 32.96 116.03 25.02 114.38 25.02 112.23 30.91 110.07 25.02 108.51 25.02 106.32 30.88 104.22 25.02 102.46 25.02 105.38 32.96 107.17 32.96"/><path class="cls-1" d="M123.29,28.65V33h1.85V28.41a3.09,3.09,0,0,0-2.69-3.47,2.64,2.64,0,0,0-.63,0A3.48,3.48,0,0,0,119.09,26V25h-1.8v8h1.87v-4A2.13,2.13,0,0,1,121,26.56a2.81,2.81,0,0,1,.41,0C122.59,26.55,123.29,27.24,123.29,28.65Z"/><rect class="cls-1" x="127.51" y="21.92" width="1.86" height="11.05"/><path class="cls-1" d="M135.39,24.92a4,4,0,0,0-4.23,3.8,2.44,2.44,0,0,0,0,.27,4.24,4.24,0,0,0,8.48,0,4,4,0,0,0-3.91-4.08Zm0,6.55A2.29,2.29,0,0,1,133,29.23a1.93,1.93,0,0,1,0-.24,2.37,2.37,0,1,1,4.72-.34,1.93,1.93,0,0,1,0,.34,2.32,2.32,0,0,1-2.15,2.48A.81.81,0,0,1,135.39,31.47Z"/><path class="cls-1" d="M146.21,32v1H148V28.28c0-2.29-1.27-3.39-3.63-3.39a5.52,5.52,0,0,0-3.36,1l.73,1.35a4,4,0,0,1,2.42-.79c1.27,0,2,.63,2,1.73v.1H144c-2.42,0-3.31,1-3.31,2.37s1.15,2.39,3,2.39A2.8,2.8,0,0,0,146.21,32Zm-3.63-1.39c0-.57.35-1.06,1.61-1.06h1.92v.93a2,2,0,0,1-2,1.28C143.14,31.72,142.58,31.28,142.58,30.61Z"/><path class="cls-1" d="M153.8,33.08A3.34,3.34,0,0,0,156.43,32v1h1.8v-11h-1.88V26a3.22,3.22,0,0,0-2.54-1.08,3.82,3.82,0,0,0-4,3.6,3.65,3.65,0,0,0,0,.47,3.81,3.81,0,0,0,3.53,4.08A2.57,2.57,0,0,0,153.8,33.08ZM154,26.5a2.34,2.34,0,0,1,2.39,2.29,2,2,0,0,1,0,.25,2.38,2.38,0,1,1-4.75.35V29a2.34,2.34,0,0,1,2.11-2.53Z"/><path class="cls-1" d="M168.34,33.08a4,4,0,0,0,4.25-3.79c0-.1,0-.2,0-.3a4.24,4.24,0,1,0-8.48,0,4,4,0,0,0,3.95,4.09Zm0-6.58a2.31,2.31,0,0,1,2.38,2.25,2.71,2.71,0,0,1,0,.29,2.37,2.37,0,1,1-4.72.35,2,2,0,0,1,0-.35,2.32,2.32,0,0,1,2.1-2.53Z"/><path class="cls-1" d="M176.24,28.94a2.12,2.12,0,0,1,1.81-2.38,2.67,2.67,0,0,1,.4,0c1.2,0,1.9.69,1.9,2.1V33h1.86V28.41a3.11,3.11,0,0,0-2.69-3.47,2.74,2.74,0,0,0-.64,0A3.48,3.48,0,0,0,176.15,26V25h-1.77v8h1.86Z"/><path class="cls-1" d="M188.94,30.39a2.43,2.43,0,0,0,2.17,2.69,2.71,2.71,0,0,0,.57,0,2.88,2.88,0,0,0,1.79-.55L193,31.26a1.7,1.7,0,0,1-1,.33c-.71,0-1.1-.42-1.1-1.2V26.57h2.14v-1.5H190.8V23.25h-1.86v1.82h-1.27v1.49h1.27Z"/><path class="cls-1" d="M201,28.65V33h1.87V28.41a3.11,3.11,0,0,0-2.69-3.47,2.66,2.66,0,0,0-.63,0,3.52,3.52,0,0,0-2.66,1v-4H195V33h1.86v-4a2.12,2.12,0,0,1,1.8-2.38,3,3,0,0,1,.42,0C200.27,26.55,201,27.24,201,28.65Z"/><path class="cls-1" d="M208.73,24.92a4,4,0,0,0-4.11,3.8V29a4.47,4.47,0,0,0,7.64,2.79l-1-1.15a2.81,2.81,0,0,1-2.15.87,2.43,2.43,0,0,1-2.55-1.91h6.2V29a3.8,3.8,0,0,0-3.5-4.1A3,3,0,0,0,208.73,24.92Zm-2.26,3.44a2.2,2.2,0,0,1,2.26-1.95A2.17,2.17,0,0,1,211,28.36Z"/><path class="cls-1" d="M88.67,40.75l-8,17.82H85l1.58-3.82H94.8l1.58,3.82h4.36l-8-17.82Zm-.82,10.87,2.83-6.79,2.82,6.82Z"/><path class="cls-1" d="M110.38,44.67a5.33,5.33,0,0,0-4.3,1.79V44.83h-3.82V63.51h4V57.15a5.33,5.33,0,0,0,4.15,1.68,6.65,6.65,0,0,0,6.83-6.48,5.42,5.42,0,0,0,0-.57A6.65,6.65,0,0,0,111,44.69C110.8,44.67,110.59,44.67,110.38,44.67Zm-.73,10.85a3.46,3.46,0,0,1-3.5-3.42,2.68,2.68,0,0,1,0-.4,3.5,3.5,0,1,1,7-.6,3,3,0,0,1,0,.6,3.46,3.46,0,0,1-3.09,3.8Z"/><path class="cls-1" d="M127.94,44.67a5.33,5.33,0,0,0-4.28,1.79V44.83h-3.82V63.51h4V57.15a5.32,5.32,0,0,0,4.13,1.68,6.66,6.66,0,0,0,6.84-6.48c0-.19,0-.38,0-.57a6.66,6.66,0,0,0-6.2-7.09C128.36,44.67,128.15,44.67,127.94,44.67Zm-.68,10.85a3.48,3.48,0,0,1-3.51-3.42c0-.13,0-.27,0-.4a3.5,3.5,0,1,1,7-.6q0,.3,0,.6a3.47,3.47,0,0,1-3.09,3.8Z"/><path class="cls-1" d="M148,45.79c0-1.12,1-2,3.39-2a10,10,0,0,1,4.94,1.4L157.55,42a11.88,11.88,0,0,0-6.19-1.58c-5.09,0-7.5,2.54-7.5,5.55,0,6.62,10.36,4.33,10.36,7.63,0,1.1-1,1.91-3.44,1.91a10.5,10.5,0,0,1-5.88-1.8l-1.4,3.1a12.73,12.73,0,0,0,7.25,2c5.1,0,7.56-2.55,7.56-5.53C158.31,46.81,148,49.08,148,45.79Z"/><path class="cls-1" d="M167,55.62a1.6,1.6,0,0,1-1.72-1.46c0-.11,0-.23,0-.35V48.24h3.42V45.18h-3.42V41.85h-4v3.33h-2.05v3.06h2.12v5.62c0,3.26,1.88,4.92,5.09,4.92a5.66,5.66,0,0,0,3.23-.87l-1.07-2.8A2.6,2.6,0,0,1,167,55.62Z"/><path class="cls-1" d="M178,44.67c-4.36,0-7.54,2.93-7.54,7.06s3.18,7.05,7.54,7.05,7.51-2.93,7.51-7.05S182.37,44.67,178,44.67Zm0,10.85a3.47,3.47,0,0,1-3.53-3.42c0-.13,0-.27,0-.4a3.52,3.52,0,0,1,7-.6q0,.3,0,.6a3.47,3.47,0,0,1-3.09,3.8Z"/><path class="cls-1" d="M192,46.69V44.83h-3.82V58.57h4V52.11c0-2.62,1.45-3.82,3.64-3.82h.89V44.67A5.52,5.52,0,0,0,192,46.69Z"/><path class="cls-1" d="M205.21,44.67a7,7,0,0,0-7.3,6.64c0,.14,0,.28,0,.42,0,4.07,3.08,7.05,7.81,7.05a7.21,7.21,0,0,0,5.66-2.22l-2.12-2.29a4.59,4.59,0,0,1-3.43,1.27,3.64,3.64,0,0,1-3.92-2.75h10.36c0-.33.07-.76.07-1.06a6.78,6.78,0,0,0-6.5-7.06C205.62,44.66,205.41,44.66,205.21,44.67Zm-3.37,5.86a3.42,3.42,0,0,1,6.75,0Z"/><path class="cls-1" d="M64.91,43.92a8.32,8.32,0,0,1,3.82-6.72,8.92,8.92,0,0,0-6.45-3.59c-2.71-.28-5.43,1.58-6.72,1.58S52,33.61,49.74,33.61a8.52,8.52,0,0,0-7.3,4.45c-3.16,5.49-.87,13.46,2.15,17.89,1.56,2.15,3.28,4.58,5.57,4.44S53.32,59,56,59s3.44,1.42,5.87,1.42,4-2.15,5.44-4.29a16.65,16.65,0,0,0,2.44-5A8,8,0,0,1,64.91,43.92Z"/><path class="cls-1" d="M60.47,30.83a8.86,8.86,0,0,0,1.86-5.73,7.67,7.67,0,0,0-5.15,2.71,7.3,7.3,0,0,0-1.86,5.45A6.82,6.82,0,0,0,60.47,30.83Z"/></g></g></g></g></svg>