<svg xmlns="http://www.w3.org/2000/svg" viewBox="0 0 254.53 85.47"><defs><style>.cls-1{fill:#000000;}</style></defs><g id="Layer_2" data-name="Layer 2"><g id="Layer_1-2" data-name="Layer 1"><path class="cls-1" d="M240.86,85.47H13.67A13.68,13.68,0,0,1,0,71.8V13.67A13.68,13.68,0,0,1,13.67,0H240.86a13.68,13.68,0,0,1,13.67,13.67V71.8A13.68,13.68,0,0,1,240.86,85.47ZM13.67,2A11.72,11.72,0,0,0,2,13.67V71.8a11.72,11.72,0,0,0,11.7,11.7H240.86a11.72,11.72,0,0,0,11.7-11.7V13.67A11.72,11.72,0,0,0,240.86,2Z"/><path class="cls-1" d="M70.89,41.23a10.39,10.39,0,0,1,5-8.72A10.63,10.63,0,0,0,67.46,28c-3.53-.37-6.95,2.11-8.74,2.11s-4.6-2.07-7.58-2a11.15,11.15,0,0,0-9.39,5.73c-4.06,7-1,17.36,2.86,23,1.94,2.78,4.22,5.89,7.19,5.78s4-1.85,7.52-1.85,4.5,1.85,7.54,1.78,5.09-2.79,7-5.6A23.16,23.16,0,0,0,77,50.47,10.07,10.07,0,0,1,70.89,41.23Z"/><path class="cls-1" d="M65.15,24.24a10.2,10.2,0,0,0,2.34-7.33,10.4,10.4,0,0,0-6.73,3.49,9.72,9.72,0,0,0-2.4,7.06A8.58,8.58,0,0,0,65.15,24.24Z"/><path class="cls-1" d="M106.54,62.38H103l-2-6.17H94.16l-1.87,6.17H88.8l6.76-21h4.18Zm-6.14-8.76-1.78-5.48c-.19-.57-.54-1.89-1.06-4H97.5c-.21.89-.54,2.21-1,4l-1.75,5.48Z"/><path class="cls-1" d="M123.93,54.62a8.57,8.57,0,0,1-2.09,6.11,6.09,6.09,0,0,1-4.64,2,4.64,4.64,0,0,1-4.3-2.15h-.07v8h-3.36V52.22c0-1.62,0-3.28-.13-5h3l.19,2.4h.06a6,6,0,0,1,9.59-.59A8.31,8.31,0,0,1,123.93,54.62Zm-3.43.12a6.25,6.25,0,0,0-1-3.64,3.45,3.45,0,0,0-2.93-1.5,3.49,3.49,0,0,0-2.26.83A3.82,3.82,0,0,0,113,52.59a4.62,4.62,0,0,0-.15,1v2.53a4,4,0,0,0,1,2.79,3.34,3.34,0,0,0,2.63,1.14,3.43,3.43,0,0,0,3-1.47A6.43,6.43,0,0,0,120.5,54.74Z"/><path class="cls-1" d="M141.36,54.62a8.61,8.61,0,0,1-2.09,6.11,6.11,6.11,0,0,1-4.64,2,4.64,4.64,0,0,1-4.3-2.15h-.07v8H126.9V52.22c0-1.62-.05-3.28-.13-5h3l.19,2.4H130a6,6,0,0,1,9.59-.59A8.36,8.36,0,0,1,141.36,54.62Zm-3.43.12a6.18,6.18,0,0,0-1-3.64A3.44,3.44,0,0,0,134,49.6a3.51,3.51,0,0,0-2.26.83,3.85,3.85,0,0,0-1.32,2.16,4.73,4.73,0,0,0-.16,1v2.53a4.07,4.07,0,0,0,1,2.79,3.38,3.38,0,0,0,2.64,1.14,3.44,3.44,0,0,0,3-1.47A6.43,6.43,0,0,0,137.93,54.74Z"/><path class="cls-1" d="M160.85,56.49A5.64,5.64,0,0,1,159,60.86a8.31,8.31,0,0,1-5.72,1.83,10,10,0,0,1-5.45-1.3l.78-2.81a9.27,9.27,0,0,0,4.87,1.34,4.62,4.62,0,0,0,3-.86,2.79,2.79,0,0,0,1.06-2.29,2.92,2.92,0,0,0-.88-2.16A8.12,8.12,0,0,0,153.71,53q-5.52-2.06-5.52-6a5.32,5.32,0,0,1,1.93-4.24,7.61,7.61,0,0,1,5.15-1.66,10.28,10.28,0,0,1,4.77,1l-.85,2.75a8.19,8.19,0,0,0-4-1,4.07,4.07,0,0,0-2.77.87,2.49,2.49,0,0,0-.84,1.9,2.57,2.57,0,0,0,1,2.06,10.8,10.8,0,0,0,3.06,1.62,10.3,10.3,0,0,1,4,2.56A5.34,5.34,0,0,1,160.85,56.49Z"/><path class="cls-1" d="M172,49.76h-3.72v7.35c0,1.88.66,2.81,2,2.81a5.65,5.65,0,0,0,1.49-.16l.1,2.56a7.63,7.63,0,0,1-2.62.37,4,4,0,0,1-3.12-1.21A6,6,0,0,1,165,57.39V49.76h-2.21V47.23H165V44.45l3.3-1v3.77H172Z"/><path class="cls-1" d="M188.72,54.68a8.33,8.33,0,0,1-2,5.74,7.11,7.11,0,0,1-5.55,2.31,6.76,6.76,0,0,1-5.31-2.22,8,8,0,0,1-2-5.58,8.23,8.23,0,0,1,2-5.76,7.05,7.05,0,0,1,5.5-2.25,6.91,6.91,0,0,1,5.36,2.22A8,8,0,0,1,188.72,54.68Zm-3.5.11a6.74,6.74,0,0,0-.9-3.59,3.32,3.32,0,0,0-3-1.82,3.39,3.39,0,0,0-3.09,1.82,7,7,0,0,0-.9,3.66,6.86,6.86,0,0,0,.9,3.59,3.4,3.4,0,0,0,3.06,1.81,3.37,3.37,0,0,0,3-1.84A6.85,6.85,0,0,0,185.22,54.79Z"/><path class="cls-1" d="M199.66,50.19a6,6,0,0,0-1.06-.09,3.2,3.2,0,0,0-2.75,1.34,5.05,5.05,0,0,0-.84,3v8h-3.36l0-10.38c0-1.74,0-3.33-.13-4.77h2.94l.12,2.9h.09a5.29,5.29,0,0,1,1.68-2.4,4.08,4.08,0,0,1,2.44-.81,5.35,5.35,0,0,1,.84.06Z"/><path class="cls-1" d="M214.71,54.09a7.53,7.53,0,0,1-.12,1.53h-10.1A4.4,4.4,0,0,0,206,59.05a5,5,0,0,0,3.3,1.06,11.15,11.15,0,0,0,4.09-.72l.52,2.34a12.68,12.68,0,0,1-5.07.93,7.37,7.37,0,0,1-5.54-2.07,7.65,7.65,0,0,1-2-5.56,8.68,8.68,0,0,1,1.87-5.71,6.46,6.46,0,0,1,5.3-2.43,5.65,5.65,0,0,1,5,2.43A8.2,8.2,0,0,1,214.71,54.09Zm-3.21-.87a4.49,4.49,0,0,0-.65-2.59,2.93,2.93,0,0,0-2.68-1.4,3.18,3.18,0,0,0-2.68,1.37,5.1,5.1,0,0,0-1,2.62Z"/><path class="cls-1" d="M99.28,28.44a5.17,5.17,0,0,1-1.67,4.2,6.61,6.61,0,0,1-4.39,1.3,20.86,20.86,0,0,1-2.42-.12V23.66a18.07,18.07,0,0,1,2.85-.21,6.12,6.12,0,0,1,4.09,1.18A4.76,4.76,0,0,1,99.28,28.44Zm-1.74,0a3.38,3.38,0,0,0-3.76-3.74,7.2,7.2,0,0,0-1.33.11v7.72a8.93,8.93,0,0,0,1.12.05,3.92,3.92,0,0,0,2.93-1.06A4.23,4.23,0,0,0,97.54,28.49Z"/><path class="cls-1" d="M108.53,30.07a4.07,4.07,0,0,1-1,2.82A3.5,3.5,0,0,1,104.83,34a3.29,3.29,0,0,1-2.61-1.09,4,4,0,0,1-1-2.74,4,4,0,0,1,1-2.83,3.82,3.82,0,0,1,5.34,0A4,4,0,0,1,108.53,30.07Zm-1.71.05a3.35,3.35,0,0,0-.45-1.77,1.63,1.63,0,0,0-1.48-.89,1.68,1.68,0,0,0-1.52.89,3.5,3.5,0,0,0-.44,1.8,3.42,3.42,0,0,0,.44,1.77,1.68,1.68,0,0,0,1.5.89,1.65,1.65,0,0,0,1.49-.91A3.39,3.39,0,0,0,106.82,30.12Z"/><path class="cls-1" d="M120.94,26.41l-2.33,7.44h-1.52l-1-3.23a24.23,24.23,0,0,1-.6-2.41h0a16.65,16.65,0,0,1-.6,2.41l-1,3.23h-1.54l-2.19-7.44h1.7L112.7,30c.2.83.37,1.63.5,2.38h0c.12-.62.33-1.41.62-2.37l1.05-3.55h1.35l1,3.48a24.89,24.89,0,0,1,.6,2.45h0a23.21,23.21,0,0,1,.5-2.45l.9-3.48Z"/><path class="cls-1" d="M129.52,33.85h-1.66V29.59c0-1.32-.5-2-1.5-2a1.48,1.48,0,0,0-1.19.54,1.89,1.89,0,0,0-.46,1.27v4.42h-1.66V28.53q0-1-.06-2.13h1.46l.07,1.17h0a2.38,2.38,0,0,1,.86-.9,2.78,2.78,0,0,1,1.5-.42,2.38,2.38,0,0,1,1.73.68,3.27,3.27,0,0,1,.86,2.46Z"/><path class="cls-1" d="M134.08,33.85h-1.65V23h1.65Z"/><path class="cls-1" d="M143.82,30.07a4.07,4.07,0,0,1-1,2.82A3.5,3.5,0,0,1,140.12,34a3.32,3.32,0,0,1-2.62-1.09,4,4,0,0,1-1-2.74,4.08,4.08,0,0,1,1-2.83,3.46,3.46,0,0,1,2.71-1.1,3.4,3.4,0,0,1,2.63,1.08A3.92,3.92,0,0,1,143.82,30.07Zm-1.72.05a3.35,3.35,0,0,0-.44-1.77,1.63,1.63,0,0,0-1.48-.89,1.67,1.67,0,0,0-1.52.89,3.84,3.84,0,0,0,0,3.57,1.68,1.68,0,0,0,1.5.89,1.66,1.66,0,0,0,1.49-.91A3.39,3.39,0,0,0,142.1,30.12Z"/><path class="cls-1" d="M151.83,33.85h-1.48l-.13-.86h0A2.55,2.55,0,0,1,148,34a2.28,2.28,0,0,1-1.7-.67,2.12,2.12,0,0,1-.58-1.52,2.31,2.31,0,0,1,1.14-2.08,5.92,5.92,0,0,1,3.21-.71V28.9c0-1-.51-1.47-1.54-1.47a3.48,3.48,0,0,0-1.94.55l-.34-1.08a4.76,4.76,0,0,1,2.55-.64q2.92,0,2.92,3.07v2.75A11.68,11.68,0,0,0,151.83,33.85Zm-1.72-2.56V30.14q-2.73,0-2.73,1.5a1.15,1.15,0,0,0,.31.88,1.2,1.2,0,0,0,.81.29,1.67,1.67,0,0,0,1-.35,1.41,1.41,0,0,0,.58-.88A2.33,2.33,0,0,0,150.11,31.29Z"/><path class="cls-1" d="M161.23,33.85h-1.46l-.08-1.19h-.05A2.49,2.49,0,0,1,157.25,34,2.77,2.77,0,0,1,155,33a4.07,4.07,0,0,1-.89-2.74,4.32,4.32,0,0,1,1-2.92,3,3,0,0,1,2.3-1.05,2.25,2.25,0,0,1,2.1,1h0V23h1.66v8.86C161.18,32.57,161.19,33.24,161.23,33.85Zm-1.71-3.14V29.47a2.4,2.4,0,0,0-.05-.52,1.82,1.82,0,0,0-.6-1,1.59,1.59,0,0,0-1.1-.41,1.71,1.71,0,0,0-1.46.74,3.14,3.14,0,0,0-.53,1.88,2.92,2.92,0,0,0,.51,1.79,1.71,1.71,0,0,0,1.45.74,1.59,1.59,0,0,0,1.3-.62A2,2,0,0,0,159.52,30.71Z"/><path class="cls-1" d="M175.39,30.07a4.12,4.12,0,0,1-1,2.82A3.54,3.54,0,0,1,171.68,34a3.32,3.32,0,0,1-2.61-1.09,3.94,3.94,0,0,1-1-2.74,4,4,0,0,1,1-2.83,3.82,3.82,0,0,1,5.34,0A4,4,0,0,1,175.39,30.07Zm-1.72.05a3.44,3.44,0,0,0-.44-1.77,1.64,1.64,0,0,0-1.49-.89,1.68,1.68,0,0,0-1.52.89,3.5,3.5,0,0,0-.44,1.8,3.42,3.42,0,0,0,.44,1.77,1.68,1.68,0,0,0,1.51.89,1.64,1.64,0,0,0,1.48-.91A3.3,3.3,0,0,0,173.67,30.12Z"/><path class="cls-1" d="M184.28,33.85h-1.65V29.59c0-1.32-.5-2-1.5-2a1.51,1.51,0,0,0-1.2.54,1.93,1.93,0,0,0-.45,1.27v4.42h-1.66V28.53q0-1-.06-2.13h1.45l.08,1.17h.05a2.43,2.43,0,0,1,.85-.9,2.79,2.79,0,0,1,1.51-.42,2.38,2.38,0,0,1,1.73.68,3.27,3.27,0,0,1,.85,2.46Z"/><path class="cls-1" d="M195.42,27.65H193.6v3.61q0,1.38,1,1.38a2.57,2.57,0,0,0,.74-.08l0,1.26a3.74,3.74,0,0,1-1.28.18,2,2,0,0,1-1.53-.59,2.93,2.93,0,0,1-.56-2V27.65h-1.08V26.41H192V25l1.63-.49v1.86h1.82v1.24Z"/><path class="cls-1" d="M204.18,33.85h-1.66V29.62c0-1.34-.5-2-1.49-2a1.57,1.57,0,0,0-1.58,1.16,2,2,0,0,0-.08.59v4.48h-1.65V23h1.65v4.49h0a2.5,2.5,0,0,1,2.24-1.23,2.31,2.31,0,0,1,1.7.68,3.38,3.38,0,0,1,.84,2.49Z"/><path class="cls-1" d="M213.22,29.78a4,4,0,0,1-.07.75h-5a2.16,2.16,0,0,0,.72,1.68,2.45,2.45,0,0,0,1.63.52,5.35,5.35,0,0,0,2-.35l.26,1.15a6.17,6.17,0,0,1-2.5.46,3.58,3.58,0,0,1-2.71-1,3.75,3.75,0,0,1-1-2.73,4.22,4.22,0,0,1,.92-2.8,3.16,3.16,0,0,1,2.6-1.2,2.76,2.76,0,0,1,2.43,1.2A3.92,3.92,0,0,1,213.22,29.78Zm-1.58-.43a2.27,2.27,0,0,0-.32-1.27,1.45,1.45,0,0,0-1.32-.69,1.58,1.58,0,0,0-1.32.67,2.62,2.62,0,0,0-.49,1.29Z"/></g></g></svg>