<svg id="Component_2_1" data-name="Component 2 – 1" xmlns="http://www.w3.org/2000/svg" width="248.385" height="248.385" viewBox="0 0 248.385 248.385">
  <defs>
    <style>
      .cls-1, .cls-2, .cls-3 {
        fill: #fc4d0f;
      }

      .cls-2 {
        opacity: 0.146;
      }

      .cls-3 {
        opacity: 0.077;
      }

      .cls-4 {
        fill: #fff;
      }
    </style>
  </defs>
  <circle id="Ellipse_49" data-name="Ellipse 49" class="cls-1" cx="71" cy="71" r="71" transform="matrix(0.995, 0.105, -0.105, 0.995, 61.036, 44.16)"/>
  <circle id="Ellipse_55" data-name="Ellipse 55" class="cls-2" cx="91" cy="91" r="91" transform="matrix(0.995, 0.105, -0.105, 0.995, 43.203, 24.179)"/>
  <circle id="Ellipse_54" data-name="Ellipse 54" class="cls-3" cx="113" cy="113" r="113" transform="matrix(0.995, 0.105, -0.105, 0.995, 23.623, 0)"/>
  <g id="Group_108" data-name="Group 108" transform="translate(85.193 96.49)">
    <path id="Path_754" data-name="Path 754" class="cls-4" d="M85.333,26.858,61.186,18.974a1.829,1.829,0,0,0-1.328,0L35.711,26.858A2.07,2.07,0,0,0,34.3,28.849v31.7a2.15,2.15,0,0,0,1.411,1.992l24.147,7.883a2.7,2.7,0,0,0,1.328,0l24.147-7.966a2.07,2.07,0,0,0,1.411-1.992V28.849A2.15,2.15,0,0,0,85.333,26.858ZM58.447,65.61l-20-6.555V31.67l7.966,2.572V49.76a2.075,2.075,0,1,0,4.149,0V35.654l7.966,2.572V65.61Zm2.075-31.035-5.643-1.826,3.983-1.411a2.061,2.061,0,0,0,1.245-2.655,2.131,2.131,0,0,0-2.655-1.245l-8.879,3.236-5.56-1.826,17.509-5.726,17.509,5.726ZM82.595,59.054l-7.966,2.572V52.665a2.054,2.054,0,0,0-2.075-2.075,1.986,1.986,0,0,0-1.992,2.075V63.037L62.6,65.61V38.226l20-6.555Z" transform="translate(-7.912 -18.85)"/>
    <path id="Path_755" data-name="Path 755" class="cls-4" d="M19.262,33.6H4.575a2.075,2.075,0,1,0,0,4.149H19.262a2.054,2.054,0,0,0,2.075-2.075A2.165,2.165,0,0,0,19.262,33.6Z" transform="translate(-2.5 -21.36)"/>
    <path id="Path_756" data-name="Path 756" class="cls-4" d="M19.262,47.5H4.575a2.075,2.075,0,1,0,0,4.149H19.262a2.054,2.054,0,0,0,2.075-2.075A2.108,2.108,0,0,0,19.262,47.5Z" transform="translate(-2.5 -23.726)"/>
    <path id="Path_757" data-name="Path 757" class="cls-4" d="M19.262,61.4H4.575a2.075,2.075,0,0,0,0,4.149H19.262a2.054,2.054,0,0,0,2.075-2.075A2.108,2.108,0,0,0,19.262,61.4Z" transform="translate(-2.5 -26.092)"/>
  </g>
</svg>
