<svg id="Component_3_1" data-name="Component 3 – 1" xmlns="http://www.w3.org/2000/svg" width="248.385" height="248.385" viewBox="0 0 248.385 248.385">
  <defs>
    <style>
      .cls-1, .cls-2, .cls-3 {
        fill: #fc4d0f;
      }

      .cls-2 {
        opacity: 0.146;
      }

      .cls-3 {
        opacity: 0.077;
      }

      .cls-4 {
        fill: #fff;
      }
    </style>
  </defs>
  <circle id="Ellipse_50" data-name="Ellipse 50" class="cls-1" cx="71" cy="71" r="71" transform="matrix(0.995, 0.105, -0.105, 0.995, 61.036, 46.16)"/>
  <circle id="Ellipse_57" data-name="Ellipse 57" class="cls-2" cx="91" cy="91" r="91" transform="matrix(0.995, 0.105, -0.105, 0.995, 43.203, 24.179)"/>
  <circle id="Ellipse_56" data-name="Ellipse 56" class="cls-3" cx="113" cy="113" r="113" transform="matrix(0.995, 0.105, -0.105, 0.995, 23.623, 0)"/>
  <path id="Path_758" data-name="Path 758" class="cls-4" d="M61.882,11.6H30.651a4.671,4.671,0,0,0-4.8,4.4v6.406c-4.6,4.4-12.813,13.613-13.814,14.614-2,1.8-2.2,3.6-2,4V59.647a2.2,2.2,0,1,0,4.4,0V43.031a3.922,3.922,0,0,1,1.4-2.8h0l9.409-10.811h0c.2-.2.4-.2.8-.2V41.029l-4.2,3.6h0c-.4.6-1,2,0,3a2.145,2.145,0,0,0,2.8.2h0l10.21-8.608h0a1.692,1.692,0,0,1,1.2-.4,5.1,5.1,0,0,1,2.6,1.2,2.784,2.784,0,0,1,0,3.8L23.043,58.246h0a2.821,2.821,0,0,0-.6,1,2.336,2.336,0,0,0,.4,2.2,2.163,2.163,0,0,0,1.4.6,3.822,3.822,0,0,0,1.6-.6l1-.8a4.688,4.688,0,0,0,3.6,1.6H61.681a4.671,4.671,0,0,0,4.8-4.4V15.8C66.686,13.4,64.484,11.6,61.882,11.6ZM30.25,56.845l11.411-10.61h0a7.137,7.137,0,0,0,0-9.81,7.905,7.905,0,0,0-5.606-2.4h0a5.59,5.59,0,0,0-4,1.6h0l-2,1.6V17.406c0-1.4.4-1.8,2-1.8H50.07V57.445H32.052c-1,0-1.6,0-1.8-.6Zm32.232-1c0,1.4-.4,1.8-2,1.8H54.875V15.6H60.68c1.6,0,2,.4,2,1.8Z" transform="translate(86.223 86.325)"/>
</svg>
