<svg xmlns="http://www.w3.org/2000/svg" viewBox="0 0 254.53 85.47"><defs><style>.cls-1,.cls-2{fill:#000000;}.cls-2{fill-rule:evenodd;}</style></defs><g id="Layer_2" data-name="Layer 2"><g id="Layer_1-2" data-name="Layer 1"><path class="cls-1" d="M240.86,85.47H13.67A13.68,13.68,0,0,1,0,71.8V13.67A13.68,13.68,0,0,1,13.67,0H240.86a13.68,13.68,0,0,1,13.67,13.67V71.8A13.68,13.68,0,0,1,240.86,85.47ZM13.67,2A11.72,11.72,0,0,0,2,13.67V71.8a11.72,11.72,0,0,0,11.7,11.7H240.86a11.72,11.72,0,0,0,11.7-11.7V13.67A11.72,11.72,0,0,0,240.86,2Z"/><path class="cls-1" d="M131.72,32.63A4.94,4.94,0,0,1,128,31.11a5.16,5.16,0,0,1-1.48-3.72A5.09,5.09,0,0,1,128,23.68a5.21,5.21,0,0,1,7.36,0,5.39,5.39,0,0,1,0,7.42A4.88,4.88,0,0,1,131.72,32.63Zm-43.62,0a5.12,5.12,0,0,1-3.7-1.5,5.34,5.34,0,0,1,0-7.46,5.24,5.24,0,0,1,5.76-1.08,4.22,4.22,0,0,1,1.57,1.12l.1.12-1.09,1.08-.12-.14a3.1,3.1,0,0,0-2.54-1.09,3.5,3.5,0,0,0-2.53,1,3.92,3.92,0,0,0,0,5.38,3.71,3.71,0,0,0,5.13,0,2.76,2.76,0,0,0,.75-1.68H87.92V26.9h5L93,27a5.17,5.17,0,0,1,.08.76,4.54,4.54,0,0,1-1.26,3.36A4.89,4.89,0,0,1,88.1,32.63Zm58-.21h-1.55l-4.73-7.58,0,1.36v6.21h-1.55v-10h1.77l0,.07,4.46,7.14,0-1.36V22.38h1.56v10Zm-26,0h-1.57V23.89h-2.72V22.38h7v1.51H120.1v8.53Zm-5.56,0H113v-10h1.57Zm-8.79,0h-1.56V23.89h-2.72V22.38h7v1.51h-2.72Zm-5.27,0h-6v-10h6v1.51H96.06v2.75h4v1.5h-4v2.75h4.42Zm28.71-2.33a3.46,3.46,0,0,0,2.53,1.05,3.38,3.38,0,0,0,2.54-1.05,4,4,0,0,0,0-5.35,3.46,3.46,0,0,0-2.53-1,3.38,3.38,0,0,0-2.53,1,3.63,3.63,0,0,0-1,2.68,3.64,3.64,0,0,0,1,2.67Z"/><path class="cls-2" d="M126.41,46.44a6.89,6.89,0,1,0,6.91,6.89A6.78,6.78,0,0,0,126.41,46.44Zm0,11.05a4.19,4.19,0,1,1,3.89-4.18A4,4,0,0,1,126.41,57.49ZM111.34,46.44a6.89,6.89,0,1,0,6.91,6.89A6.78,6.78,0,0,0,111.34,46.44Zm0,11.05a4.19,4.19,0,1,1,3.88-4.18A4,4,0,0,1,111.34,57.49Zm-18-9v2.92h7a6.13,6.13,0,0,1-1.58,3.67,7.17,7.17,0,0,1-5.4,2.14,7.78,7.78,0,0,1,0-15.55,7.47,7.47,0,0,1,5.27,2.09l2.07-2.07a10.19,10.19,0,0,0-7.32-3,10.69,10.69,0,1,0,0,21.38,9.76,9.76,0,0,0,7.46-3,9.64,9.64,0,0,0,2.54-6.83,8.92,8.92,0,0,0-.16-1.82H93.39Zm73.39,2.27a6.41,6.41,0,0,0-5.9-4.39,6.55,6.55,0,0,0-6.5,6.89,6.74,6.74,0,0,0,6.84,6.89A6.85,6.85,0,0,0,167,57.14l-2.34-1.56a3.91,3.91,0,0,1-3.38,1.9,3.51,3.51,0,0,1-3.35-2.09l9.21-3.81Zm-9.4,2.3a3.78,3.78,0,0,1,3.6-4,2.66,2.66,0,0,1,2.56,1.46Zm-7.48,6.68h3V39.55h-3Zm-5-11.82h-.11a4.77,4.77,0,0,0-3.63-1.55,6.89,6.89,0,0,0,0,13.77,4.75,4.75,0,0,0,3.63-1.57h.11v1c0,2.63-1.41,4-3.67,4a3.8,3.8,0,0,1-3.47-2.45l-2.63,1.1a6.57,6.57,0,0,0,6.1,4.07c3.54,0,6.55-2.09,6.55-7.18V46.83H145V48Zm-3.47,9.52a4.19,4.19,0,0,1,0-8.35c2.06,0,3.67,1.78,3.67,4.19A3.83,3.83,0,0,1,141.46,57.49Zm39.48-17.94h-7.23V59.79h3V52.12h4.21a6.29,6.29,0,1,0,0-12.57ZM181,49.3h-4.3V42.35H181a3.48,3.48,0,1,1,0,6.95Zm18.68-2.9a5.69,5.69,0,0,0-5.4,3.09L197,50.61a2.88,2.88,0,0,1,2.76-1.5,2.92,2.92,0,0,1,3.18,2.61v.22a6.73,6.73,0,0,0-3.15-.78c-2.89,0-5.83,1.58-5.83,4.55,0,2.72,2.37,4.47,5,4.47a4.27,4.27,0,0,0,3.85-2h.11v1.56h2.91V52C205.84,48.4,203.16,46.4,199.71,46.4Zm-.38,11.09c-1,0-2.38-.49-2.38-1.73,0-1.57,1.73-2.16,3.21-2.16a5.2,5.2,0,0,1,2.75.68A3.64,3.64,0,0,1,199.33,57.49Zm17.15-10.66L213,55.61h-.11l-3.6-8.78h-3.25l5.4,12.28-3.08,6.82h3.15l8.31-19.1Zm-27.23,13h3V39.55h-3Z"/><path class="cls-1" d="M35.49,22.59A3.87,3.87,0,0,0,34.71,25V59.43a3.94,3.94,0,0,0,.68,2.2L54.14,42.07Z"/><path class="cls-1" d="M61.92,33.91,40.55,21.57a3.85,3.85,0,0,0-3-.3L55.81,40.33Z"/><path class="cls-1" d="M37.38,63.09a3.65,3.65,0,0,0,1.23.2,4,4,0,0,0,1.94-.54L62.12,50.32l-6.27-6.49Z"/><path class="cls-1" d="M70.38,38.79l-6.24-3.6L57.5,42l6.74,7,6.09-3.52a3.84,3.84,0,0,0,2-3.32A3.89,3.89,0,0,0,70.38,38.79Z"/></g></g></svg>