<svg id="Component_4_1" data-name="Component 4 – 1" xmlns="http://www.w3.org/2000/svg" width="248.385" height="248.385" viewBox="0 0 248.385 248.385">
  <defs>
    <style>
      .cls-1, .cls-2, .cls-3 {
        fill: #fc4d0f;
      }

      .cls-2 {
        opacity: 0.146;
      }

      .cls-3 {
        opacity: 0.077;
      }

      .cls-4 {
        fill: #fff;
        stroke: #fff;
      }
    </style>
  </defs>
  <circle id="Ellipse_48" data-name="Ellipse 48" class="cls-1" cx="71" cy="71" r="71" transform="matrix(0.995, 0.105, -0.105, 0.995, 60.036, 46.16)"/>
  <circle id="Ellipse_52" data-name="Ellipse 52" class="cls-2" cx="91" cy="91" r="91" transform="matrix(0.995, 0.105, -0.105, 0.995, 43.204, 24.179)"/>
  <circle id="Ellipse_53" data-name="Ellipse 53" class="cls-3" cx="113" cy="113" r="113" transform="matrix(0.995, 0.105, -0.105, 0.995, 23.623, 0)"/>
  <g id="Group_110" data-name="Group 110" transform="translate(-305.135 -1510.944)">
    <path id="Path_751" data-name="Path 751" class="cls-4" d="M58.643,37.428h-.337a4.939,4.939,0,0,0-2.082.457,4.982,4.982,0,0,0-4.863-3.93h-.338a4.942,4.942,0,0,0-2.355.594,4.982,4.982,0,0,0-4.591-3.058h-.336a4.949,4.949,0,0,0-1.972.407v-7.14A4.979,4.979,0,0,0,36.8,19.784h-.337a4.979,4.979,0,0,0-4.973,4.973V43.048L29.218,44.77a8.293,8.293,0,0,0-1.434,11.821l7.071,8.741v3.476a3.813,3.813,0,0,0,3.809,3.809H56.31a3.813,3.813,0,0,0,3.809-3.809v-3.3a16.043,16.043,0,0,0,3.5-9.98V42.4A4.978,4.978,0,0,0,58.643,37.428Zm1.972,18.1a13.037,13.037,0,0,1-3.137,8.465,1.5,1.5,0,0,0-.36.975v3.84a.808.808,0,0,1-.807.807H38.664a.808.808,0,0,1-.807-.807V64.8a1.5,1.5,0,0,0-.334-.944l-7.4-9.154a5.293,5.293,0,0,1,.915-7.543l.453-.344v4.156a1.5,1.5,0,0,0,3,0V24.758a1.974,1.974,0,0,1,1.972-1.972H36.8a1.974,1.974,0,0,1,1.972,1.972V36.465h0l.007,9.737a1.5,1.5,0,0,0,1.5,1.5h0a1.5,1.5,0,0,0,1.5-1.5l-.008-9.729s0,0,0-.008a1.974,1.974,0,0,1,1.972-1.972h.336a1.975,1.975,0,0,1,1.973,1.972V38.93h0l.007,7.273a1.5,1.5,0,0,0,1.5,1.5h0a1.5,1.5,0,0,0,1.5-1.5l-.007-7.271a1.974,1.974,0,0,1,1.972-1.972h.337a1.974,1.974,0,0,1,1.972,1.972v3.082c0,.05-.015.1-.015.148l.008,4.046a1.5,1.5,0,0,0,1.5,1.5h0a1.5,1.5,0,0,0,1.5-1.5l-.007-3.658c0-.047.014-.091.014-.138a1.974,1.974,0,0,1,1.972-1.972h.337A1.974,1.974,0,0,1,60.615,42.4V55.529Z" transform="translate(388.386 1594.052)"/>
    <path id="Path_752" data-name="Path 752" class="cls-4" d="M27.5,27.762a1.5,1.5,0,0,1-1.276-.708,11.558,11.558,0,1,1,20.91-2.829,1.5,1.5,0,0,1-2.88-.847,8.56,8.56,0,1,0-15.483,2.091A1.5,1.5,0,0,1,27.5,27.762Z" transform="translate(388.749 1596.646)"/>
    <path id="Path_753" data-name="Path 753" class="cls-4" d="M24.261,34.221a1.5,1.5,0,0,1-.839-.257,18.455,18.455,0,1,1,27.511-8.557,1.5,1.5,0,0,1-2.794-1.1A15.462,15.462,0,1,0,25.1,31.476a1.5,1.5,0,0,1-.841,2.745Z" transform="translate(391.045 1598.942)"/>
  </g>
</svg>
