<svg xmlns="http://www.w3.org/2000/svg" viewBox="0 0 253.69 85.43"><defs><style>.cls-1{fill:#fff;}</style></defs><g id="Layer_2" data-name="Layer 2"><g id="Layer_1-2" data-name="Layer 1"><path class="cls-1" d="M127,85.42H13.32c-5.3,0-9.39-2.11-11.78-6.82A14.17,14.17,0,0,1,.08,72.48C0,52.65,0,32.82,0,13,0,5.37,5.49,0,13.13,0H240.54c7.77,0,13.14,5.41,13.14,13.23q0,29.46,0,58.9c0,7.91-5.36,13.28-13.25,13.28Zm-.11-3H240.61c6,0,10.1-4.07,10.1-10.07q0-29.67,0-59.34a9.59,9.59,0,0,0-9.12-10c-.3,0-.59,0-.88,0H13A9.58,9.58,0,0,0,3,12.07c0,.31,0,.62,0,.92Q3,42.74,3,72.48a9.61,9.61,0,0,0,2,6.23,9.93,9.93,0,0,0,8.34,3.74q56.73,0,113.47,0Z"/><g id="Layer_2-2" data-name="Layer 2"><g id="Layer_1-2-2" data-name="Layer 1-2"><path class="cls-1" d="M73.49,33.22A6.64,6.64,0,0,0,77.58,32v-4.2H75.8V31a4.23,4.23,0,0,1-2.14.54,3.59,3.59,0,0,1-3.81-3.35c0-.11,0-.21,0-.32a3.56,3.56,0,0,1,3.45-3.67,2.29,2.29,0,0,1,.37,0,3.81,3.81,0,0,1,2.84,1.19l1.27-1.19a5.82,5.82,0,0,0-9.88,3.31c0,.12,0,.23,0,.35a5.33,5.33,0,0,0,5.3,5.37Z"/><path class="cls-1" d="M83.43,25a4,4,0,0,0-4.12,3.78v.28a4.05,4.05,0,0,0,4,4.1l.39,0a4,4,0,0,0,3.19-1.27l-1-1.15a2.88,2.88,0,0,1-2.16.87,2.41,2.41,0,0,1-2.55-1.91h6.24v-.55a3.81,3.81,0,0,0-3.49-4.12A2.77,2.77,0,0,0,83.43,25Zm-2.29,3.42a2.18,2.18,0,0,1,2.29-1.93,2.13,2.13,0,0,1,2.24,1.93Z"/><path class="cls-1" d="M89.47,30.48a2.43,2.43,0,0,0,2.17,2.69,2.62,2.62,0,0,0,.56,0A2.88,2.88,0,0,0,94,32.63l-.52-1.27a1.59,1.59,0,0,1-1,.33,1,1,0,0,1-1.11-1.18V26.67h2.13V25.18H91.32V23.36H89.47v1.82H88.19v1.49h1.28Z"/><rect class="cls-1" x="99.64" y="25.13" width="1.86" height="7.96"/><path class="cls-1" d="M100.57,23.81a1.14,1.14,0,0,0,1.19-1.09v-.08a1.11,1.11,0,0,0-1.14-1.07h-.05a1.15,1.15,0,0,0-1.19,1.08v0a1.15,1.15,0,0,0,1.15,1.13Z"/><path class="cls-1" d="M106.93,33.18a3,3,0,0,0,1.79-.53l-.52-1.28a1.71,1.71,0,0,1-1,.34c-.73,0-1.11-.42-1.11-1.19V26.67h2.13V25.18h-2.13V23.36h-1.86v1.82h-1.27v1.49h1.27v3.81a2.46,2.46,0,0,0,2.16,2.71A2.25,2.25,0,0,0,106.93,33.18Z"/><path class="cls-1" d="M117.94,25a4,4,0,0,0-4.23,3.77,2.71,2.71,0,0,0,0,.29,4.24,4.24,0,0,0,8.48,0A4,4,0,0,0,118.25,25Zm0,6.55a2.32,2.32,0,0,1-2.37-2.27c0-.09,0-.18,0-.27a2.37,2.37,0,0,1,4.73-.35,2,2,0,0,1,0,.35,2.32,2.32,0,0,1-2.11,2.53Z"/><path class="cls-1" d="M125.83,29.06a2.11,2.11,0,0,1,1.81-2.38,1.88,1.88,0,0,1,.41,0c1.19,0,1.89.68,1.89,2.1V33h1.86V28.51a3.1,3.1,0,0,0-2.7-3.46,2.58,2.58,0,0,0-.62,0,3.45,3.45,0,0,0-2.74,1.1v-1H124V33h1.87Z"/><path class="cls-1" d="M78.23,44.06a6,6,0,0,1,4.6,2l2.65-2.45A9.52,9.52,0,0,0,78,40.55c-5.67,0-9.8,3.82-9.8,9.22S72.35,59,78,59a12.28,12.28,0,0,0,7.2-2.26V49.49H81.33v5.18a6.73,6.73,0,0,1-3.2.75,5.5,5.5,0,0,1-5.78-5.21,4,4,0,0,1,0-.49,5.49,5.49,0,0,1,5.3-5.67Z"/><path class="cls-1" d="M95.21,44.78c-4.36,0-7.54,2.92-7.54,7s3.18,7.06,7.54,7.06,7.51-2.94,7.51-7.06S99.56,44.78,95.21,44.78Zm0,10.84a3.47,3.47,0,0,1-3.53-3.42c0-.13,0-.26,0-.4a3.51,3.51,0,1,1,7-.59,2.91,2.91,0,0,1,0,.59,3.45,3.45,0,0,1-3.08,3.8A2.75,2.75,0,0,1,95.21,55.62Z"/><path class="cls-1" d="M111.88,44.78c-4.35,0-7.53,2.92-7.53,7s3.18,7.06,7.53,7.06,7.51-2.94,7.51-7.06S116.23,44.78,111.88,44.78Zm0,10.84a3.47,3.47,0,0,1-3.53-3.42,2.75,2.75,0,0,1,0-.4,3.51,3.51,0,1,1,7-.59,2.91,2.91,0,0,1,0,.59,3.45,3.45,0,0,1-3.09,3.8A2.68,2.68,0,0,1,111.88,55.62Z"/><path class="cls-1" d="M132.4,46.74a5.49,5.49,0,0,0-4.53-2A6.63,6.63,0,1,0,127.29,58h.58a5.61,5.61,0,0,0,4.32-1.72v.58c0,2.49-1.27,3.76-4,3.76a8.2,8.2,0,0,1-4.83-1.55L121.76,62a11.28,11.28,0,0,0,6.72,1.88c4.94,0,7.64-2.34,7.64-7.43V44.94H132.3Zm-3.74,8a3.33,3.33,0,1,1,.25,0Z"/><rect class="cls-1" x="139.86" y="39.79" width="3.97" height="18.89"/><path class="cls-1" d="M153.81,44.78a7,7,0,0,0-7.3,6.63c0,.14,0,.28,0,.42,0,4.07,3.08,7.06,7.82,7.06A7.15,7.15,0,0,0,160,56.68l-2.11-2.31a4.66,4.66,0,0,1-3.44,1.34A3.65,3.65,0,0,1,150.5,53h10.36c0-.33.08-.76.08-1.07a6.78,6.78,0,0,0-6.45-7.1Zm-3.36,5.85a3.42,3.42,0,0,1,6.74,0Z"/><path class="cls-1" d="M178.78,40.86h-7.71V58.68h4.12V53.76h3.59c4.76,0,7.74-2.47,7.74-6.44S183.54,40.86,178.78,40.86Zm-.23,9.54h-3.36V44.22h3.36c2.55,0,3.82,1.14,3.82,3.1S181.07,50.4,178.55,50.4Z"/><rect class="cls-1" x="189.42" y="39.79" width="3.97" height="18.89"/><path class="cls-1" d="M202.61,44.78a10.55,10.55,0,0,0-5.91,1.65l1.43,2.78a6.56,6.56,0,0,1,3.94-1.28c2.14,0,3.16,1,3.16,2.7h-3.16c-4.17,0-5.88,1.68-5.88,4.1s1.91,4.16,5.09,4.16A4.48,4.48,0,0,0,205.46,57v1.71h3.72V50.85C209.2,46.71,206.78,44.78,202.61,44.78Zm2.62,9.57a2.93,2.93,0,0,1-2.93,1.86c-1.4,0-2.24-.65-2.24-1.64s.59-1.62,2.45-1.62h2.72Z"/><path class="cls-1" d="M222.31,45l-3.82,9.29L214.67,45h-4.09l5.93,13.81v.13c-.54,1.27-1.15,1.7-2.24,1.7a3.47,3.47,0,0,1-2.24-.86l-1.45,2.82a6,6,0,0,0,3.81,1.28c2.47,0,4.36-1,5.68-4.31L226.26,45Z"/><path class="cls-1" d="M28,27.68a3,3,0,0,0-.6,1.81V55.94A3,3,0,0,0,28,57.63l14.38-15Z"/><path class="cls-1" d="M48.3,36.36,31.91,26.89a3,3,0,0,0-2.29-.22l14,14.62Z"/><path class="cls-1" d="M29.48,58.75a3,3,0,0,0,.94.16,3.13,3.13,0,0,0,1.49-.42L48.46,49l-4.82-5Z"/><path class="cls-1" d="M54.79,40.11,50,37.34,44.92,42.6,50.09,48l4.67-2.69a3,3,0,0,0,0-5.18Z"/></g></g></g></g></svg>