<svg xmlns="http://www.w3.org/2000/svg" viewBox="0 0 156.21 73.13">
    <defs>
        <style>
            .cls-1 {
                fill: none;
            }

            .cls-2 {
                fill: #ff4d0f;
            }
        </style>
    </defs>
    <g id="Layer_2" data-name="Layer 2">
        <g id="Layer_1-2" data-name="Layer 1">
            <path class="cls-1"
                d="M55.33,30.84A30.56,30.56,0,0,0,52.07,39L56,40.06a47.79,47.79,0,0,0,.82-8.77A1.81,1.81,0,0,0,55.33,30.84Z" />
            <path class="cls-1" d="M66.32,37.12s.22,7.93,0,9h0s3.92.14,2.9-5C68.56,37.65,66.32,37.12,66.32,37.12Z" />
            <path class="cls-2"
                d="M19.57,25.63s-2.41-3.05-2.25-3.89c0,0,8,2.76,11.7,3.21l-2.24-8.81S4,3.43,0,0C0,0,9.84,21.94,18.79,31.73a57.44,57.44,0,0,0,8.55,1.57l2.77,7.56-2.44-1.09-2-4.67s-4.32-.65-5.34-.9c-.09,0,.36.63.41.7.79,1,2.61,4.52,5.38,5.88l8.09,4.92L29.7,28.16S23.06,27.49,19.57,25.63Z" />
            <path class="cls-2"
                d="M48.37,29.38l2.33-4.63s-17.46-4.89-21.56-8.38l2.19,8.89,3.88,1.21,2.08,20.39,2.87.39,3.89-18.83Z" />
            <path class="cls-2"
                d="M73.38,38.52A6.28,6.28,0,0,0,72,36.43c-1.83-1.79-6.7-6.51-8.44-7.63,0,0,.05,20.36-2.42,26.05a5.78,5.78,0,0,0,5.13-1.19s.44-4,.1-5c0,0,3.76-1.24,1.06,7.54-2.16,7-1.18,8.94-1.18,8.94s6.25,6.47,10.47,7.7c0,0-3.88-23.23-4.78-24.52C71.89,48.32,75.21,43.17,73.38,38.52Zm-7.06,7.55h0c.22-1,0-9,0-9s2.24.53,2.9,3.91C70.24,46.21,66.32,46.07,66.32,46.07Z" />
            <path class="cls-2"
                d="M86.74,62.4S83.56,41.12,84.8,31.56l-4.34-3-4.08,3.16s.3,29.69,5.14,41.45c0,0,11.76-6.75,13.27-9.73l-2.13-4.6Z" />
            <path class="cls-2"
                d="M88.18,35.62s1.58,16.83,5.46,21.61c0,0,6.41-2.67,7.76-3.79,0,0-6.34-9.11-8-23.91A28.57,28.57,0,0,0,88.18,35.62Z" />
            <path class="cls-2"
                d="M120.68,19.37a28.28,28.28,0,0,1-7,2.51s2.57,13.89,4.48,16.88c0,0-7.09-7.89-8-9s-1.74-2-2.6-2.94c-.33-.37-1.84-2.6-2.23-2.56-3.15.34-8.82,3.49-8.82,3.49a79.26,79.26,0,0,0,8.4,24.07c1.69-.39,9.3-4.22,9.3-4.22-1.35-1.35-4.39-8.83-4.39-8.83l9.57,7c.2.14,6.07-4.72,6.82-5.1,1.13-.58.53-1.76.19-2.65A143.36,143.36,0,0,1,120.68,19.37Z" />
            <path class="cls-2"
                d="M156.21,0S140.62,11.81,124,18.11c0,0,3,16.13,5.48,21.3,0,0,11-9.15,12.36-12.8l.16-6.47a48,48,0,0,1-5.34,3.2l.06,3.32-3,2.42-.12-8s16-7.68,19.2-11C152.79,10.07,154.24,7.48,156.21,0Z" />
            <path class="cls-2"
                d="M61.54,28.24s-1.93-2.36-9-3c-.1,0-.14.16-.21.25-2.83,3.76-9.06,23.54-9.06,23.54l5.45,2.08,3.6-5.81c.81.17,0,0,1.23.3l.57,7.48,5.4,1.46A85,85,0,0,0,61.54,28.24ZM56,40.06,52.07,39a30.56,30.56,0,0,1,3.26-8.14,1.81,1.81,0,0,1,1.48.45A47.79,47.79,0,0,1,56,40.06Z" />
        </g>
    </g>
</svg>