<?xml version="1.0" encoding="utf-8"?>
<!-- Generator: Adobe Illustrator 26.2.1, SVG Export Plug-In . SVG Version: 6.00 Build 0)  -->
<svg version="1.1" id="Layer_1" xmlns="http://www.w3.org/2000/svg" xmlns:xlink="http://www.w3.org/1999/xlink" x="0px" y="0px"
	 viewBox="0 0 223.1 136.9" style="enable-background:new 0 0 223.1 136.9;" xml:space="preserve">
<style type="text/css">
	.st0{fill:#FF4D0F;}
	.st1{enable-background:new    ;}
	.st2{fill:#FC4D0F;}
</style>
<g id="Group_206" transform="translate(-391.659 -19.119)">
	<path id="Path_1131" class="st0" d="M429.8,42.1c0,0-32.4-18.1-38.1-23c0,0,14,31.2,26.7,45.1c0,0,8.4,2.2,12.2,2.2l3.9,10.8
		l-3.5-1.5l-2.9-6.6c0,0-6.2-0.9-7.6-1.3c-0.1,0,0.5,0.9,0.6,1c1.1,1.4,3.7,6.4,7.7,8.4l11.5,7l-6.4-25c0,0-9.4-1-14.4-3.6
		c0,0-3.4-4.3-3.2-5.5c0,0,11.4,3.9,16.7,4.6L429.8,42.1z"/>
	<path id="Path_1132" class="st0" d="M433.1,42.4l3.1,12.6l5.5,1.7l3,29l4.1,0.6l5.5-26.8l6.1,1.4l3.3-6.6
		C463.8,54.3,439,47.4,433.1,42.4z"/>
	<g id="Group_201" transform="translate(581.445 455.192)">
		<path id="Path_1133" class="st0" d="M-87.5-367.3c0,0,4.7-7.3,2.1-13.9c-0.5-1.1-1.2-2.1-2-3c-2.6-2.6-9.5-9.3-12-10.9
			c0,0,0.1,29-3.4,37.1c2.6,0.6,5.3,0,7.3-1.7c0,0,0.6-5.7,0.1-7.1c0,0,5.4-1.8,1.5,10.7c-3.1,10-1.7,12.7-1.7,12.7s8.9,9.2,14.9,11
			C-80.7-332.4-86.2-365.5-87.5-367.3z M-95.4-370.5c0.3-1.4,0-12.7,0-12.7s3.2,0.7,4.1,5.6C-89.8-370.3-95.4-370.5-95.4-370.5
			L-95.4-370.5z"/>
	</g>
	<path id="Path_1134" class="st0" d="M506.2,59.7l-5.8,4.5c0,0,0.4,42.3,7.3,59c0,0,16.7-9.6,18.9-13.8l-3-6.5l-8.4,5.1
		c0,0-4.5-30.3-2.8-43.9L506.2,59.7z"/>
	<path id="Path_1135" class="st0" d="M524.6,61.1c-2.9,2.5-5.4,5.4-7.5,8.7c0,0,2.2,24,7.8,30.8c0,0,9.1-3.8,11-5.4
		C536,95.2,526.9,82.2,524.6,61.1z"/>
	<path id="Path_1136" class="st0" d="M548.3,61.5c-1.2-1.4-2.5-2.8-3.7-4.2c-0.5-0.5-2.6-3.7-3.2-3.6c-4.5,0.5-12.5,5-12.5,5
		c2.8,18.2,12,34.3,12,34.3c2.4-0.6,13.2-6,13.2-6c-1.9-1.9-6.2-12.6-6.2-12.6l13.6,9.9c0.3,0.2,8.7-6.7,9.7-7.3
		c1.6-0.8,0.8-2.5,0.3-3.8c-3.3-8.7-6-17.5-8.1-26.6c-3.2,1.6-6.5,2.8-10,3.6c0,0,3.7,19.8,6.4,24C559.8,74.3,549.7,63,548.3,61.5z"
		/>
	<path id="Path_1137" class="st0" d="M613.9,19.1c0,0-22.2,16.8-45.9,25.8c0,0,4.3,22.9,7.8,30.3c0,0,15.7-13,17.6-18.2l0.2-9.2
		c-2.4,1.7-5,3.2-7.6,4.6l0.1,4.7l-4.2,3.4l-0.2-11.4c0,0,22.7-10.9,27.3-15.6C609.1,33.4,611.1,29.8,613.9,19.1z"/>
	<g id="Group_202" transform="translate(556.071 450.149)">
		<path id="Path_1138" class="st0" d="M-76.8-390.8c0,0-2.8-3.4-12.8-4.2c-0.1,0-0.2,0.2-0.3,0.4c-4,5.3-12.9,33.5-12.9,33.5l7.8,3
			l5.1-8.3c1.2,0.2,0,0,1.7,0.4l0.8,10.6l7.7,2.1C-76.8-365.6-75.8-378.3-76.8-390.8z M-84.7-374l-5.6-1.5c1-4.1,2.5-8,4.6-11.6
			c0.8-0.1,1.5,0.1,2.1,0.6C-83.6-382.3-84-378.1-84.7-374L-84.7-374z"/>
	</g>
</g>
<g class="st1">
	<path class="st2" d="M1,116.3h3.5c1.1,0,2,0.3,2.6,0.9c0.6,0.6,0.9,1.5,0.9,2.7v7.4c0,1.2-0.3,2.1-0.9,2.7
		c-0.6,0.6-1.4,0.9-2.6,0.9H1V116.3z M4.5,128.8c0.4,0,0.7-0.1,0.9-0.3c0.2-0.2,0.3-0.6,0.3-1.1v-7.6c0-0.5-0.1-0.9-0.3-1.1
		c-0.2-0.2-0.5-0.3-0.9-0.3H3.3v10.5H4.5z"/>
	<path class="st2" d="M9.5,116.3h2.3v14.6H9.5V116.3z"/>
	<path class="st2" d="M14.2,130.2c-0.6-0.6-0.9-1.5-0.9-2.7v-7.7c0-1.2,0.3-2.1,0.9-2.7c0.6-0.6,1.4-1,2.5-1s2,0.3,2.5,1
		c0.6,0.6,0.9,1.5,0.9,2.7v1.3H18v-1.4c0-1-0.4-1.4-1.2-1.4c-0.8,0-1.2,0.5-1.2,1.4v8c0,0.9,0.4,1.4,1.2,1.4c0.8,0,1.2-0.5,1.2-1.4
		v-2.9h-1.1v-2.1h3.3v4.8c0,1.2-0.3,2.1-0.9,2.7c-0.6,0.6-1.4,1-2.5,1S14.8,130.8,14.2,130.2z"/>
	<path class="st2" d="M21.7,116.3H24v14.6h-2.3V116.3z"/>
	<path class="st2" d="M27.5,118.4h-2.4v-2.1h7.1v2.1h-2.4v12.5h-2.3V118.4z"/>
	<path class="st2" d="M34.1,116.3h3.1l2.4,14.6h-2.3l-0.4-2.9v0h-2.6l-0.4,2.9h-2.1L34.1,116.3z M36.6,126.1l-1-7.2h0l-1,7.2H36.6z"
		/>
	<path class="st2" d="M40.7,116.3H43v12.5h3.8v2.1h-6.1V116.3z"/>
	<path class="st2" d="M50.7,116.3h2.2l1,11.2h0l1.1-11.2h2.5l1.1,11.2h0l1-11.2h2l-1.5,14.6h-2.9l-1-9.9h0l-1,9.9h-3.1L50.7,116.3z"
		/>
	<path class="st2" d="M62.9,116.3h2.3v6h2.5v-6h2.3v14.6h-2.3v-6.6h-2.5v6.6h-2.3V116.3z"/>
	<path class="st2" d="M72.4,130.2c-0.6-0.6-0.9-1.5-0.9-2.7v-7.7c0-1.2,0.3-2.1,0.9-2.7c0.6-0.6,1.5-1,2.6-1c1.1,0,2,0.3,2.6,1
		c0.6,0.6,0.9,1.5,0.9,2.7v7.7c0,1.2-0.3,2.1-0.9,2.7c-0.6,0.6-1.5,1-2.6,1C73.9,131.1,73,130.8,72.4,130.2z M76.2,127.6v-8
		c0-1-0.4-1.4-1.2-1.4c-0.8,0-1.2,0.5-1.2,1.4v8c0,1,0.4,1.4,1.2,1.4C75.8,129,76.2,128.5,76.2,127.6z"/>
	<path class="st2" d="M80,116.3h2.3v12.5h3.8v2.1H80V116.3z"/>
	<path class="st2" d="M87.2,116.3h6.3v2.1h-4v3.9h3.2v2.1h-3.2v4.5h4v2.1h-6.3V116.3z"/>
	<path class="st2" d="M95.3,130.2c-0.6-0.6-0.9-1.5-0.9-2.7v-0.8h2.2v1c0,0.9,0.4,1.4,1.2,1.4c0.4,0,0.7-0.1,0.9-0.3
		c0.2-0.2,0.3-0.6,0.3-1.1c0-0.6-0.1-1.2-0.4-1.6c-0.3-0.5-0.8-1-1.5-1.7c-0.9-0.8-1.6-1.6-2-2.3s-0.6-1.4-0.6-2.3
		c0-1.2,0.3-2.1,0.9-2.7c0.6-0.6,1.4-1,2.5-1c1.1,0,1.9,0.3,2.5,1s0.8,1.5,0.8,2.7v0.6h-2.2v-0.8c0-0.5-0.1-0.9-0.3-1.1
		c-0.2-0.2-0.5-0.3-0.9-0.3c-0.8,0-1.1,0.5-1.1,1.4c0,0.5,0.1,1,0.4,1.5c0.3,0.5,0.8,1,1.6,1.7c1,0.8,1.6,1.6,2,2.3
		c0.4,0.7,0.5,1.5,0.5,2.4c0,1.2-0.3,2.1-0.9,2.8c-0.6,0.6-1.5,1-2.6,1C96.7,131.1,95.9,130.8,95.3,130.2z"/>
	<path class="st2" d="M104.3,116.3h3.1l2.4,14.6h-2.3l-0.4-2.9v0h-2.6l-0.4,2.9h-2.1L104.3,116.3z M106.8,126.1l-1-7.2h0l-1,7.2
		H106.8z"/>
	<path class="st2" d="M110.9,116.3h2.3v12.5h3.8v2.1h-6.1V116.3z"/>
	<path class="st2" d="M118.1,116.3h6.3v2.1h-4v3.9h3.2v2.1h-3.2v4.5h4v2.1h-6.3V116.3z"/>
	<path class="st2" d="M129.1,116.3h3.3l1.5,10.5h0l1.5-10.5h3.3v14.6h-2.2v-11.1h0l-1.7,11.1h-1.9l-1.7-11.1h0v11.1h-2V116.3z"/>
	<path class="st2" d="M142.1,116.3h3.1l2.4,14.6h-2.3l-0.4-2.9v0h-2.6l-0.4,2.9h-2.1L142.1,116.3z M144.6,126.1l-1-7.2h0l-1,7.2
		H144.6z"/>
	<path class="st2" d="M148.7,116.3h3.4c1.2,0,2,0.3,2.6,0.8c0.5,0.6,0.8,1.4,0.8,2.5v0.9c0,1.5-0.5,2.5-1.5,2.9v0
		c0.6,0.2,1,0.5,1.2,1c0.2,0.5,0.3,1.2,0.3,2.1v2.6c0,0.4,0,0.8,0,1c0,0.3,0.1,0.5,0.2,0.8h-2.3c-0.1-0.2-0.1-0.5-0.2-0.7
		c0-0.2,0-0.6,0-1.1v-2.7c0-0.7-0.1-1.1-0.3-1.4s-0.6-0.4-1.1-0.4H151v6.3h-2.3V116.3z M151.8,122.6c0.5,0,0.8-0.1,1-0.4
		c0.2-0.2,0.3-0.6,0.3-1.2v-1.1c0-0.5-0.1-0.9-0.3-1.1c-0.2-0.2-0.5-0.4-0.9-0.4h-1v4.2H151.8z"/>
	<path class="st2" d="M157.1,116.3h2.3v6.2l2.9-6.2h2.3l-2.7,5.4l2.8,9.3h-2.4l-1.9-6.5l-0.9,1.9v4.7h-2.3V116.3z"/>
	<path class="st2" d="M165.8,116.3h6.3v2.1h-4v3.9h3.2v2.1h-3.2v4.5h4v2.1h-6.3V116.3z"/>
	<path class="st2" d="M175.1,118.4h-2.4v-2.1h7.1v2.1h-2.4v12.5h-2.3V118.4z"/>
	<path class="st2" d="M184.3,116.3h3.4c1.1,0,2,0.3,2.6,0.9c0.6,0.6,0.9,1.5,0.9,2.7v1.4c0,1.2-0.3,2.1-0.9,2.7
		c-0.6,0.6-1.4,0.9-2.6,0.9h-1.1v6h-2.3V116.3z M187.7,122.9c0.4,0,0.7-0.1,0.8-0.3s0.3-0.6,0.3-1.1v-1.7c0-0.5-0.1-0.9-0.3-1.1
		s-0.5-0.3-0.8-0.3h-1.1v4.5H187.7z"/>
	<path class="st2" d="M192.4,116.3h2.3v12.5h3.8v2.1h-6.1V116.3z"/>
	<path class="st2" d="M201.4,116.3h3.1l2.4,14.6h-2.3l-0.4-2.9v0h-2.6l-0.4,2.9H199L201.4,116.3z M203.9,126.1l-1-7.2h0l-1,7.2
		H203.9z"/>
	<path class="st2" d="M208.7,130.2c-0.6-0.6-0.9-1.5-0.9-2.7v-7.9c0-1.1,0.3-2,0.9-2.7s1.4-0.9,2.5-0.9s1.9,0.3,2.5,0.9
		s0.9,1.5,0.9,2.7v1.5h-2.2v-1.7c0-0.9-0.4-1.4-1.1-1.4s-1.1,0.5-1.1,1.4v8.2c0,0.9,0.4,1.3,1.1,1.3s1.1-0.4,1.1-1.3v-2.2h2.2v2.1
		c0,1.1-0.3,2-0.9,2.7s-1.4,0.9-2.5,0.9S209.3,130.8,208.7,130.2z"/>
	<path class="st2" d="M216,116.3h6.3v2.1h-4v3.9h3.2v2.1h-3.2v4.5h4v2.1H216V116.3z"/>
</g>
</svg>
