<svg xmlns="http://www.w3.org/2000/svg" width="156.207" height="73.128" viewBox="0 0 156.207 73.128">
  <g id="Group_118" data-name="Group 118" transform="translate(-494.515 -414.208)">
    <path id="Path_1131" data-name="Path 1131" d="M521.291,430.352s-22.781-12.713-26.776-16.144c0,0,9.844,21.938,18.788,31.725a56.6,56.6,0,0,0,8.55,1.575l2.769,7.557-2.432-1.088-2.025-4.669s-4.323-.653-5.344-.9c-.088-.021.361.629.417.7.792,1.017,2.606,4.52,5.377,5.881l8.091,4.92-4.491-17.539s-6.637-.675-10.125-2.531c0,0-2.419-3.047-2.25-3.891,0,0,7.988,2.756,11.7,3.206Z" transform="translate(0 0)" fill="#ff4d0f"/>
    <path id="Path_1132" data-name="Path 1132" d="M547.112,443.756l2.194,8.887,3.874,1.218,2.088,20.382,2.869.394,3.886-18.834,4.321.959,2.33-4.621S551.218,447.243,547.112,443.756Z" transform="translate(-23.459 -13.179)" fill="#ff4d0f"/>
    <g id="Group_201" data-name="Group 201" transform="translate(555.603 443.008)">
      <path id="Path_1133" data-name="Path 1133" d="M615.586,485.714s3.321-5.149,1.489-9.8a6.08,6.08,0,0,0-1.43-2.088c-1.829-1.793-6.7-6.508-8.439-7.629,0,0,.056,20.362-2.419,26.044a5.789,5.789,0,0,0,5.127-1.181s.442-3.994.1-5.006c0,0,3.766-1.238,1.068,7.537-2.164,7.036-1.18,8.943-1.18,8.943s6.243,6.469,10.462,7.706C620.367,510.24,616.485,487.009,615.586,485.714Zm-5.568-2.25c.225-1.013,0-8.944,0-8.944s2.241.525,2.9,3.907C613.937,483.606,610.018,483.465,610.018,483.465Z" transform="translate(-604.786 -466.196)" fill="#ff4d0f"/>
    </g>
    <path id="Path_1134" data-name="Path 1134" d="M636.469,465.683l-4.087,3.162s.306,29.694,5.143,41.45c0,0,11.757-6.75,13.275-9.731l-2.137-4.594-5.92,3.6s-3.178-21.282-1.94-30.844Z" transform="translate(-61.491 -22.959)" fill="#ff4d0f"/>
    <path id="Path_1135" data-name="Path 1135" d="M658.948,467.516A28.559,28.559,0,0,0,653.7,473.6s1.577,16.834,5.458,21.616c0,0,6.405-2.669,7.755-3.794C666.916,491.422,660.579,482.31,658.948,467.516Z" transform="translate(-71.001 -23.776)" fill="#ff4d0f"/>
    <path id="Path_1136" data-name="Path 1136" d="M682.265,459.6c-.861-.987-1.737-1.959-2.6-2.943-.324-.37-1.839-2.6-2.233-2.555-3.15.337-8.816,3.488-8.816,3.488a79.261,79.261,0,0,0,8.4,24.074c1.688-.393,9.3-4.219,9.3-4.219-1.35-1.35-4.387-8.832-4.387-8.832l9.563,6.975c.2.146,6.079-4.718,6.823-5.1,1.13-.581.534-1.756.193-2.646a142.671,142.671,0,0,1-5.658-18.672,28.48,28.48,0,0,1-7.039,2.513s2.567,13.893,4.48,16.875C690.293,468.559,683.2,460.672,682.265,459.6Z" transform="translate(-77.652 -15.594)" fill="#ff4d0f"/>
    <path id="Path_1137" data-name="Path 1137" d="M750.536,414.208s-15.581,11.813-32.231,18.113c0,0,3,16.125,5.475,21.3,0,0,11.007-9.15,12.357-12.806l.168-6.469a50.7,50.7,0,0,1-5.344,3.206l.056,3.318-2.982,2.419-.112-8.043s15.963-7.681,19.2-10.971C747.123,424.275,748.567,421.69,750.536,414.208Z" transform="translate(-99.815 0)" fill="#ff4d0f"/>
    <g id="Group_202" data-name="Group 202" transform="translate(537.772 439.464)">
      <path id="Path_1138" data-name="Path 1138" d="M590.879,462.78s-1.932-2.362-9.01-2.981c-.1-.009-.138.161-.211.257-2.824,3.755-9.06,23.537-9.06,23.536l5.456,2.081,3.6-5.812c.812.168,0,0,1.224.3l.576,7.483,5.4,1.462A85.121,85.121,0,0,0,590.879,462.78Zm-5.548,11.826-3.917-1.083a30.07,30.07,0,0,1,3.261-8.139,1.815,1.815,0,0,1,1.476.446A47.68,47.68,0,0,1,585.331,474.606Z" transform="translate(-572.598 -459.798)" fill="#ff4d0f"/>
    </g>
  </g>
</svg>
