<svg xmlns="http://www.w3.org/2000/svg" width="223.144" height="136.911" viewBox="0 0 223.144 136.911">
  <g id="Group_9365" data-name="Group 9365" transform="translate(-102.856 -395.089)">
    <g id="Group_206" data-name="Group 206" transform="translate(-391.659 -19.119)">
      <path id="Path_1131" data-name="Path 1131" d="M532.618,437.182s-32.419-18.091-38.1-22.974c0,0,14.009,31.218,26.736,45.146,0,0,8.405,2.161,12.167,2.241l3.941,10.754L533.9,470.8l-2.881-6.644s-6.151-.929-7.6-1.281c-.125-.03.514.895.593,1,1.127,1.447,3.708,6.432,7.652,8.369l11.514,7-6.391-24.958s-9.445-.96-14.408-3.6c0,0-3.442-4.336-3.2-5.536,0,0,11.367,3.922,16.65,4.562Z" transform="translate(0 0)" fill="#ff4d0f"/>
      <path id="Path_1132" data-name="Path 1132" d="M547.112,443.756l3.122,12.646,5.513,1.734,2.972,29,4.083.56,5.529-26.8,6.149,1.365,3.315-6.576S552.955,448.719,547.112,443.756Z" transform="translate(-11.133 -6.254)" fill="#ff4d0f"/>
      <g id="Group_201" data-name="Group 201" transform="translate(581.445 455.192)">
        <path id="Path_1133" data-name="Path 1133" d="M620.155,493.971s4.726-7.327,2.118-13.948a8.652,8.652,0,0,0-2.036-2.971c-2.6-2.552-9.528-9.26-12.01-10.856,0,0,.08,28.976-3.442,37.061a8.238,8.238,0,0,0,7.3-1.681s.628-5.684.148-7.124c0,0,5.359-1.761,1.519,10.726-3.079,10.012-1.679,12.727-1.679,12.727s8.885,9.205,14.888,10.967C626.959,528.872,621.435,495.813,620.155,493.971Zm-7.923-3.2c.32-1.441,0-12.728,0-12.728s3.189.747,4.132,5.56C617.808,490.971,612.231,490.77,612.231,490.77Z" transform="translate(-604.786 -466.196)" fill="#ff4d0f"/>
      </g>
      <path id="Path_1134" data-name="Path 1134" d="M638.2,465.683l-5.816,4.5s.435,42.256,7.319,58.986c0,0,16.73-9.606,18.891-13.848l-3.042-6.538-8.425,5.123s-4.522-30.285-2.761-43.892Z" transform="translate(-29.182 -10.896)" fill="#ff4d0f"/>
      <path id="Path_1135" data-name="Path 1135" d="M661.166,467.516a40.641,40.641,0,0,0-7.462,8.658s2.244,23.956,7.767,30.76c0,0,9.115-3.8,11.035-5.4C672.506,501.535,663.488,488.568,661.166,467.516Z" transform="translate(-33.695 -11.283)" fill="#ff4d0f"/>
      <path id="Path_1136" data-name="Path 1136" d="M688.04,464.013c-1.225-1.4-2.471-2.788-3.7-4.188-.461-.527-2.616-3.7-3.178-3.636-4.483.48-12.546,4.963-12.546,4.963,2.8,18.25,11.956,34.259,11.956,34.259,2.4-.56,13.237-6,13.237-6-1.921-1.921-6.243-12.568-6.243-12.568l13.608,9.926c.284.207,8.65-6.714,9.709-7.257,1.607-.826.76-2.5.274-3.766a203.021,203.021,0,0,1-8.052-26.571,40.526,40.526,0,0,1-10.017,3.576s3.653,19.771,6.375,24.014C699.463,476.76,689.368,465.537,688.04,464.013Z" transform="translate(-36.851 -7.4)" fill="#ff4d0f"/>
      <path id="Path_1137" data-name="Path 1137" d="M764.171,414.208S742,431.018,718.305,439.983c0,0,4.269,22.946,7.791,30.311,0,0,15.663-13.021,17.584-18.224l.24-9.205a72.144,72.144,0,0,1-7.6,4.563l.08,4.722-4.243,3.442-.16-11.446s22.716-10.931,27.321-15.612C759.314,428.534,761.369,424.855,764.171,414.208Z" transform="translate(-47.369 0)" fill="#ff4d0f"/>
      <g id="Group_202" data-name="Group 202" transform="translate(556.071 450.149)">
        <path id="Path_1138" data-name="Path 1138" d="M598.613,464.041s-2.75-3.361-12.822-4.242c-.143-.013-.2.229-.3.366-4.019,5.343-12.893,33.494-12.893,33.493l7.764,2.962,5.123-8.271c1.156.24,0,0,1.742.424l.819,10.649,7.685,2.081A121.131,121.131,0,0,0,598.613,464.041Zm-7.9,16.829-5.574-1.541a42.79,42.79,0,0,1,4.64-11.582,2.583,2.583,0,0,1,2.1.635A67.85,67.85,0,0,1,590.718,480.87Z" transform="translate(-572.598 -459.798)" fill="#ff4d0f"/>
      </g>
    </g>
    <text id="Digital_Wholesale_Market_Place" data-name="Digital Wholesale Market Place" transform="translate(103 526)" fill="#fc4d0f" font-size="20.9" font-family="BebasNeue-Regular, Bebas Neue"><tspan x="0" y="0">DIGITAL WHOLESALE MARKET PLACE</tspan></text>
  </g>
</svg>
