<svg xmlns="http://www.w3.org/2000/svg" viewBox="0 0 253.69 85.43"><defs><style>.cls-1{fill:#fff;}</style></defs><g id="Layer_2" data-name="Layer 2"><g id="Layer_1-2" data-name="Layer 1"><path class="cls-1" d="M62.89,43a9.91,9.91,0,0,1,4.73-8.33,10.18,10.18,0,0,0-8-4.33c-3.37-.36-6.64,2-8.35,2s-4.39-2-7.24-1.93a10.68,10.68,0,0,0-9,5.48c-3.88,6.71-1,16.59,2.74,22,1.86,2.66,4,5.63,6.87,5.52s3.83-1.77,7.18-1.77,4.31,1.77,7.21,1.7S63.91,60.66,65.7,58a22.14,22.14,0,0,0,3-6.21A9.59,9.59,0,0,1,62.89,43Z"/><path class="cls-1" d="M57.41,26.72a9.79,9.79,0,0,0,2.24-7A10,10,0,0,0,53.21,23a9.31,9.31,0,0,0-2.29,6.75A8.23,8.23,0,0,0,57.41,26.72Z"/><path class="cls-1" d="M103.16,63H99.27l-2.13-6.7h-7.4l-2,6.7H83.92l7.34-22.79h4.53Zm-6.66-9.5-1.92-6c-.21-.61-.59-2-1.15-4.3h-.07c-.23,1-.59,2.4-1.08,4.3l-1.9,6Z"/><path class="cls-1" d="M122,54.6a9.36,9.36,0,0,1-2.27,6.63,6.62,6.62,0,0,1-5,2.16,5,5,0,0,1-4.67-2.33H110v8.65h-3.65V52c0-1.76,0-3.56-.14-5.41h3.22l.2,2.6h.07a6.49,6.49,0,0,1,10.39-.64A9,9,0,0,1,122,54.6Zm-3.72.13a6.77,6.77,0,0,0-1.08-3.95,3.75,3.75,0,0,0-3.18-1.63,3.82,3.82,0,0,0-2.45.9,4.2,4.2,0,0,0-1.44,2.35,4.92,4.92,0,0,0-.17,1.11v2.74a4.4,4.4,0,0,0,1.1,3A3.65,3.65,0,0,0,114,60.52a3.74,3.74,0,0,0,3.21-1.59A7,7,0,0,0,118.31,54.73Z"/><path class="cls-1" d="M140.93,54.6a9.31,9.31,0,0,1-2.27,6.63,6.62,6.62,0,0,1-5,2.16A5,5,0,0,1,129,61.06h-.07v8.65h-3.65V52c0-1.76,0-3.56-.13-5.41h3.21l.2,2.6h.07a6.5,6.5,0,0,1,10.4-.64A9.08,9.08,0,0,1,140.93,54.6Zm-3.72.13a6.77,6.77,0,0,0-1.08-3.95A3.75,3.75,0,0,0,133,49.15a3.82,3.82,0,0,0-2.45.9,4.2,4.2,0,0,0-1.44,2.35,4.92,4.92,0,0,0-.17,1.11v2.74a4.4,4.4,0,0,0,1.1,3,3.65,3.65,0,0,0,2.86,1.24,3.74,3.74,0,0,0,3.21-1.59A7,7,0,0,0,137.21,54.73Z"/><path class="cls-1" d="M162.06,56.63a6.07,6.07,0,0,1-2,4.73,9,9,0,0,1-6.21,2,11,11,0,0,1-5.91-1.42l.85-3a10,10,0,0,0,5.28,1.46,5,5,0,0,0,3.21-.93,3,3,0,0,0,1.15-2.49,3.14,3.14,0,0,0-.95-2.34,8.74,8.74,0,0,0-3.14-1.76q-6-2.23-6-6.54a5.76,5.76,0,0,1,2.09-4.6,8.28,8.28,0,0,1,5.58-1.8A11,11,0,0,1,161.18,41l-.91,3a8.92,8.92,0,0,0-4.36-1,4.43,4.43,0,0,0-3,.94,2.74,2.74,0,0,0-.91,2.07,2.79,2.79,0,0,0,1,2.23,11.94,11.94,0,0,0,3.31,1.76,11.28,11.28,0,0,1,4.33,2.77A5.78,5.78,0,0,1,162.06,56.63Z"/><path class="cls-1" d="M174.13,49.33h-4v8c0,2,.71,3.05,2.13,3.05a6.65,6.65,0,0,0,1.62-.17L174,63a8.24,8.24,0,0,1-2.84.4A4.41,4.41,0,0,1,167.74,62c-.81-.88-1.22-2.36-1.22-4.43V49.32h-2.39V46.58h2.39v-3l3.59-1.08v4.09h4Z"/><path class="cls-1" d="M192.29,54.67a9,9,0,0,1-2.16,6.22,7.72,7.72,0,0,1-6,2.5,7.38,7.38,0,0,1-5.77-2.4,8.74,8.74,0,0,1-2.14-6.05,8.89,8.89,0,0,1,2.21-6.25,7.66,7.66,0,0,1,6-2.44,7.49,7.49,0,0,1,5.81,2.4A8.64,8.64,0,0,1,192.29,54.67Zm-3.79.12a7.34,7.34,0,0,0-1-3.9,3.59,3.59,0,0,0-3.27-2,3.66,3.66,0,0,0-3.35,2,7.46,7.46,0,0,0-1,4,7.34,7.34,0,0,0,1,3.9,3.73,3.73,0,0,0,6.59,0A7.37,7.37,0,0,0,188.5,54.79Z"/><path class="cls-1" d="M204.16,49.8a6.08,6.08,0,0,0-1.15-.1,3.45,3.45,0,0,0-3,1.45,5.47,5.47,0,0,0-.91,3.25V63h-3.65l0-11.26c0-1.89,0-3.62-.13-5.17h3.18l.13,3.14h.1a5.66,5.66,0,0,1,1.83-2.6,4.39,4.39,0,0,1,2.64-.88,5.1,5.1,0,0,1,.91.07Z"/><path class="cls-1" d="M220.49,54a8.66,8.66,0,0,1-.13,1.66h-11A4.74,4.74,0,0,0,211,59.4a5.4,5.4,0,0,0,3.58,1.15,12.1,12.1,0,0,0,4.44-.78l.57,2.54a13.69,13.69,0,0,1-5.51,1,8,8,0,0,1-6-2.24,8.34,8.34,0,0,1-2.18-6,9.4,9.4,0,0,1,2-6.19,7,7,0,0,1,5.74-2.63A6.14,6.14,0,0,1,219,48.85,8.92,8.92,0,0,1,220.49,54ZM217,53.08a5,5,0,0,0-.71-2.81,3.19,3.19,0,0,0-2.91-1.52,3.46,3.46,0,0,0-2.91,1.49,5.4,5.4,0,0,0-1.08,2.84Z"/><path class="cls-1" d="M95.29,26.21a5.62,5.62,0,0,1-1.81,4.55,7.21,7.21,0,0,1-4.76,1.41A22.05,22.05,0,0,1,86.09,32V21a19.92,19.92,0,0,1,3.09-.23,6.7,6.7,0,0,1,4.44,1.28A5.19,5.19,0,0,1,95.29,26.21Zm-1.89.05a4.06,4.06,0,0,0-1-3,4.07,4.07,0,0,0-3-1.05,7.45,7.45,0,0,0-1.44.12v8.37a8.4,8.4,0,0,0,1.21,0,4.27,4.27,0,0,0,3.18-1.14A4.59,4.59,0,0,0,93.4,26.26Z"/><path class="cls-1" d="M105.33,28A4.44,4.44,0,0,1,104.26,31a3.78,3.78,0,0,1-3,1.23,3.65,3.65,0,0,1-2.84-1.18,4.32,4.32,0,0,1-1-3A4.37,4.37,0,0,1,98.51,25a3.74,3.74,0,0,1,2.93-1.19A3.7,3.7,0,0,1,104.3,25,4.3,4.3,0,0,1,105.33,28Zm-1.86.06a3.65,3.65,0,0,0-.48-1.92,1.86,1.86,0,0,0-3.26,0,4.14,4.14,0,0,0,0,3.87A1.84,1.84,0,0,0,103,30,3.65,3.65,0,0,0,103.47,28Z"/><path class="cls-1" d="M118.78,24l-2.52,8.07h-1.65l-1-3.5a23.68,23.68,0,0,1-.65-2.61h0a18.1,18.1,0,0,1-.65,2.61l-1.11,3.5h-1.66L107.08,24h1.85l.91,3.84c.22.9.4,1.77.55,2.59h0c.14-.68.36-1.54.67-2.58L112.23,24h1.47l1.09,3.77c.27.92.49,1.81.65,2.66h0a25.81,25.81,0,0,1,.55-2.66L117,24Z"/><path class="cls-1" d="M128.09,32.07h-1.8V27.45c0-1.43-.54-2.14-1.63-2.14a1.61,1.61,0,0,0-1.29.59,2.07,2.07,0,0,0-.5,1.38v4.79h-1.8V26.31q0-1.06-.06-2.31h1.58l.08,1.26h0a2.64,2.64,0,0,1,.93-1,3.05,3.05,0,0,1,1.63-.45,2.58,2.58,0,0,1,1.88.73,3.56,3.56,0,0,1,.93,2.68Z"/><path class="cls-1" d="M133,32.07h-1.79V20.3H133Z"/><path class="cls-1" d="M143.6,28A4.44,4.44,0,0,1,142.54,31a3.81,3.81,0,0,1-3,1.23,3.62,3.62,0,0,1-2.83-1.18,4.33,4.33,0,0,1-1.06-3A4.42,4.42,0,0,1,136.78,25a3.76,3.76,0,0,1,2.93-1.19A3.7,3.7,0,0,1,142.57,25,4.25,4.25,0,0,1,143.6,28Zm-1.86.06a3.65,3.65,0,0,0-.48-1.92,1.79,1.79,0,0,0-1.61-1,1.81,1.81,0,0,0-1.65,1A4.14,4.14,0,0,0,138,30a1.82,1.82,0,0,0,1.63,1,1.8,1.8,0,0,0,1.61-1A3.65,3.65,0,0,0,141.74,28Z"/><path class="cls-1" d="M152.29,32.07h-1.62l-.13-.93h0a2.78,2.78,0,0,1-2.36,1.12,2.43,2.43,0,0,1-1.84-.74,2.29,2.29,0,0,1-.63-1.64,2.5,2.5,0,0,1,1.24-2.26,6.42,6.42,0,0,1,3.48-.76v-.15c0-1.07-.56-1.6-1.68-1.6a3.72,3.72,0,0,0-2.1.6l-.37-1.18a5.22,5.22,0,0,1,2.77-.69q3.17,0,3.17,3.33v3A12.11,12.11,0,0,0,152.29,32.07Zm-1.87-2.77V28.05c-2,0-3,.51-3,1.63a1.14,1.14,0,0,0,1.22,1.26,1.78,1.78,0,0,0,1.1-.37,1.49,1.49,0,0,0,.62-1A1.35,1.35,0,0,0,150.42,29.3Z"/><path class="cls-1" d="M162.48,32.07h-1.59l-.08-1.29h-.05a2.7,2.7,0,0,1-2.59,1.48,3.05,3.05,0,0,1-2.43-1.15,4.47,4.47,0,0,1-1-3,4.74,4.74,0,0,1,1-3.18,3.25,3.25,0,0,1,2.5-1.13,2.42,2.42,0,0,1,2.27,1.1h0V20.3h1.8v9.6C162.42,30.68,162.44,31.41,162.48,32.07Zm-1.86-3.4V27.32a2.18,2.18,0,0,0-.05-.56,2,2,0,0,0-.64-1.09,1.8,1.8,0,0,0-1.2-.44,1.82,1.82,0,0,0-1.58.8,3.35,3.35,0,0,0-.58,2,3.14,3.14,0,0,0,.55,1.94,1.86,1.86,0,0,0,1.57.8,1.74,1.74,0,0,0,1.42-.66A2.2,2.2,0,0,0,160.62,28.67Z"/><path class="cls-1" d="M177.83,28A4.44,4.44,0,0,1,176.77,31a3.8,3.8,0,0,1-3,1.23A3.64,3.64,0,0,1,171,31.08a4.32,4.32,0,0,1-1-3A4.41,4.41,0,0,1,171,25,3.78,3.78,0,0,1,174,23.84,3.68,3.68,0,0,1,176.8,25,4.25,4.25,0,0,1,177.83,28ZM176,28a3.65,3.65,0,0,0-.48-1.92,1.86,1.86,0,0,0-3.25,0,3.62,3.62,0,0,0-.49,1.95,3.7,3.7,0,0,0,.49,1.92,1.84,1.84,0,0,0,3.24,0A3.64,3.64,0,0,0,176,28Z"/><path class="cls-1" d="M187.48,32.07h-1.79V27.45c0-1.43-.54-2.14-1.63-2.14a1.61,1.61,0,0,0-1.29.59,2.07,2.07,0,0,0-.5,1.38v4.79h-1.8V26.31q0-1.06-.06-2.31H182l.09,1.26h.05a2.64,2.64,0,0,1,.93-1,3.05,3.05,0,0,1,1.63-.45,2.54,2.54,0,0,1,1.87.73,3.52,3.52,0,0,1,.93,2.68Z"/><path class="cls-1" d="M199.56,25.34h-2v3.93c0,1,.35,1.49,1,1.49a3.53,3.53,0,0,0,.8-.08l0,1.36a4.16,4.16,0,0,1-1.4.2,2.15,2.15,0,0,1-1.66-.65,3.18,3.18,0,0,1-.59-2.18V25.34h-1.18V24h1.18V22.52l1.75-.53v2h2v1.34Z"/><path class="cls-1" d="M209.06,32.07h-1.79V27.48c0-1.44-.54-2.17-1.63-2.17a1.71,1.71,0,0,0-1.71,1.26,2.37,2.37,0,0,0-.09.65v4.85h-1.79V20.3h1.79v4.86h0a2.71,2.71,0,0,1,2.42-1.33,2.53,2.53,0,0,1,1.85.73,3.69,3.69,0,0,1,.91,2.71Z"/><path class="cls-1" d="M218.86,27.65a4.67,4.67,0,0,1-.06.82h-5.39a2.38,2.38,0,0,0,.78,1.82,2.69,2.69,0,0,0,1.77.57,6,6,0,0,0,2.17-.38l.28,1.24a6.59,6.59,0,0,1-2.71.5,3.91,3.91,0,0,1-2.94-1.1,4.07,4.07,0,0,1-1.07-3,4.67,4.67,0,0,1,1-3,3.45,3.45,0,0,1,2.83-1.29,3,3,0,0,1,2.63,1.29A4.27,4.27,0,0,1,218.86,27.65Zm-1.71-.46a2.41,2.41,0,0,0-.35-1.38,1.55,1.55,0,0,0-1.42-.75,1.71,1.71,0,0,0-1.43.73,2.75,2.75,0,0,0-.54,1.4Z"/><path class="cls-1" d="M127,85.42H13.32c-5.3,0-9.39-2.11-11.78-6.82A14.17,14.17,0,0,1,.08,72.48C0,52.65,0,32.82,0,13,0,5.37,5.49,0,13.13,0H240.54c7.77,0,13.14,5.41,13.14,13.23q0,29.46,0,58.9c0,7.91-5.36,13.28-13.25,13.28Zm-.11-3H240.61c6,0,10.1-4.07,10.1-10.07q0-29.67,0-59.34a9.59,9.59,0,0,0-9.12-10c-.3,0-.59,0-.88,0H13A9.58,9.58,0,0,0,3,12.07c0,.31,0,.62,0,.92Q3,42.74,3,72.48a9.61,9.61,0,0,0,2,6.23,9.93,9.93,0,0,0,8.34,3.74q56.73,0,113.47,0Z"/></g></g></svg>