<svg xmlns="http://www.w3.org/2000/svg" viewBox="0 0 253.69 85.43"><defs><style>.cls-1,.cls-2{fill:#fff;}.cls-2{fill-rule:evenodd;}</style></defs><g id="Layer_2" data-name="Layer 2"><g id="Layer_1-2" data-name="Layer 1"><path class="cls-1" d="M127,85.42H13.32c-5.3,0-9.39-2.11-11.78-6.82A14.17,14.17,0,0,1,.08,72.48C0,52.65,0,32.82,0,13,0,5.37,5.49,0,13.13,0H240.54c7.77,0,13.14,5.41,13.14,13.23q0,29.46,0,58.9c0,7.91-5.36,13.28-13.25,13.28Zm-.11-3H240.61c6,0,10.1-4.07,10.1-10.07q0-29.67,0-59.34a9.59,9.59,0,0,0-9.12-10c-.3,0-.59,0-.88,0H13A9.58,9.58,0,0,0,3,12.07c0,.31,0,.62,0,.92Q3,42.74,3,72.48a9.61,9.61,0,0,0,2,6.23,9.93,9.93,0,0,0,8.34,3.74q56.73,0,113.47,0Z"/><path class="cls-1" d="M131.3,32.11a4.94,4.94,0,0,1-3.68-1.52,5.16,5.16,0,0,1-1.48-3.72,5.09,5.09,0,0,1,1.48-3.71,4.93,4.93,0,0,1,3.68-1.52A5,5,0,0,1,135,23.16a5.39,5.39,0,0,1,0,7.42A4.9,4.9,0,0,1,131.3,32.11Zm-43.62,0a5.27,5.27,0,0,1-3.7-9,5.26,5.26,0,0,1,5.76-1.07,4.22,4.22,0,0,1,1.57,1.12l.1.12-1.1,1.07-.11-.13a3.12,3.12,0,0,0-2.54-1.09,3.48,3.48,0,0,0-2.53,1,3.92,3.92,0,0,0,0,5.38,3.71,3.71,0,0,0,5.13,0A2.76,2.76,0,0,0,91,27.89H87.5V26.38h5l0,.13a5.11,5.11,0,0,1,.07.76,4.54,4.54,0,0,1-1.25,3.35A4.86,4.86,0,0,1,87.68,32.11Zm58-.21h-1.55l-4.73-7.58,0,1.36v6.21h-1.55v-10h1.76l0,.07,4.46,7.14,0-1.36V21.86h1.56v10Zm-26,0h-1.57V23.37h-2.72V21.86h7v1.51h-2.72V31.9Zm-5.56,0h-1.57v-10h1.57Zm-8.79,0h-1.56V23.37h-2.72V21.86h7v1.51h-2.72Zm-5.27,0h-6v-10h6v1.51H95.63v2.75h4v1.5h-4v2.75h4.43Zm28.71-2.33a3.46,3.46,0,0,0,2.53,1.05,3.34,3.34,0,0,0,2.53-1.05,4,4,0,0,0,0-5.35,3.46,3.46,0,0,0-2.53-1.05,3.36,3.36,0,0,0-2.53,1.05,4,4,0,0,0,0,5.35Z"/><path class="cls-2" d="M126,45.92a6.89,6.89,0,1,0,6.91,6.89A6.78,6.78,0,0,0,126,45.92Zm0,11a4.19,4.19,0,1,1,3.89-4.18A4,4,0,0,1,126,57Zm-15.08-11a6.89,6.89,0,1,0,6.91,6.89A6.78,6.78,0,0,0,110.91,45.92Zm0,11a4.19,4.19,0,1,1,3.89-4.18A4,4,0,0,1,110.91,57ZM93,48v2.92h7a6.13,6.13,0,0,1-1.58,3.67A7.17,7.17,0,0,1,93,56.75,7.78,7.78,0,0,1,93,41.2a7.45,7.45,0,0,1,5.27,2.09l2.07-2.07A10.2,10.2,0,0,0,93,38.27a10.69,10.69,0,1,0,0,21.38,9.76,9.76,0,0,0,7.47-3A9.65,9.65,0,0,0,103,49.8a8.89,8.89,0,0,0-.16-1.81H93Zm73.38,2.27a6.39,6.39,0,0,0-5.9-4.39A6.55,6.55,0,0,0,154,52.79a6.74,6.74,0,0,0,6.84,6.89,6.85,6.85,0,0,0,5.74-3.06l-2.34-1.56a3.93,3.93,0,0,1-3.39,1.9,3.5,3.5,0,0,1-3.34-2.09l9.21-3.81ZM157,52.59a3.78,3.78,0,0,1,3.6-4A2.67,2.67,0,0,1,163.12,50Zm-7.48,6.68h3V39h-3Zm-5-11.82h-.11a4.75,4.75,0,0,0-3.64-1.55,6.89,6.89,0,0,0,0,13.77,4.75,4.75,0,0,0,3.64-1.57h.11v1c0,2.63-1.41,4-3.67,4a3.83,3.83,0,0,1-3.48-2.45l-2.63,1.1a6.59,6.59,0,0,0,6.1,4.07c3.55,0,6.55-2.09,6.55-7.19V46.31h-2.86v1.14ZM141,57a4.19,4.19,0,0,1,0-8.35c2.06,0,3.67,1.78,3.67,4.19A3.83,3.83,0,0,1,141,57ZM180.52,39h-7.23V59.27h3V51.6h4.21a6.3,6.3,0,1,0,0-12.58Zm.09,9.75h-4.3V41.83h4.3a3.47,3.47,0,1,1,0,6.94Zm18.68-2.89a5.69,5.69,0,0,0-5.4,3.09l2.68,1.12a2.88,2.88,0,0,1,2.75-1.5,2.93,2.93,0,0,1,3.19,2.61v.22a6.73,6.73,0,0,0-3.15-.78c-2.9,0-5.83,1.58-5.83,4.55,0,2.72,2.37,4.47,5,4.47a4.27,4.27,0,0,0,3.85-2h.11v1.56h2.91V51.49C205.42,47.88,202.74,45.88,199.29,45.88ZM198.91,57c-1,0-2.38-.49-2.38-1.73,0-1.57,1.73-2.16,3.21-2.16a5.2,5.2,0,0,1,2.75.68A3.64,3.64,0,0,1,198.91,57Zm17.15-10.66-3.47,8.78h-.11l-3.6-8.78h-3.26L211,58.59,208,65.41h3.15l8.31-19.1Zm-27.23,13h3V39h-3Z"/><path class="cls-1" d="M35.07,23.07a3.87,3.87,0,0,0-.78,2.36V59.91a3.86,3.86,0,0,0,.68,2.2L53.71,42.55Z"/><path class="cls-1" d="M61.5,34.39,40.13,22a3.9,3.9,0,0,0-3-.29L55.39,40.81Z"/><path class="cls-1" d="M37,63.57a3.63,3.63,0,0,0,1.22.2,4,4,0,0,0,2-.54L61.7,50.8l-6.28-6.49Z"/><path class="cls-1" d="M70,39.27l-6.24-3.6-6.64,6.85,6.74,7L69.91,46a3.84,3.84,0,0,0,2-3.32A3.89,3.89,0,0,0,70,39.27Z"/></g></g></svg>